<?xml version="1.0" encoding="UTF-8"?>
<svg id="Capa_1" data-name="Capa 1" xmlns="http://www.w3.org/2000/svg" version="1.1" viewBox="0 0 172 65.1">
  <defs>
    <style>
      .cls-1, .cls-2, .cls-3, .cls-4, .cls-5 {
        stroke-width: 0px;
      }

      .cls-1, .cls-6 {
        fill: #000;
      }

      .cls-2 {
        fill: #ebebeb;
      }

      .cls-3 {
        fill: #34abde;
      }

      .cls-4 {
        fill: #fdfffd;
      }

      .cls-5 {
        fill: #1470b3;
      }

      .cls-6 {
        stroke: #000;
        stroke-miterlimit: 10;
        stroke-width: .8px;
      }
    </style>
  </defs>
  <path class="cls-1" d="M67.9,4.1v56.9h-1.5V4.1h1.5Z"/>
  <g>
    <polygon class="cls-5" points="7.3 4 57.8 4 53.3 55.4 32.5 61.1 12.1 55.5 7.3 4"/>
    <g>
      <polygon class="cls-3" points="32.6 8.1 53.2 8.1 49.6 52.2 32.6 57 32.6 8.1"/>
      <g>
        <path class="cls-4" d="M32.6,14.4h16l-2.8,32.7-13.3,3.7v-6.8s7-1.9,7-1.9l.9-8.1h-8v-6.5h8.4l.5-6.3h-8.9s0-6.7,0-6.7Z"/>
        <path class="cls-2" d="M16.7,14.4h15.9v6.7c-.3,0-15.4,0-15.4,0l-.5-6.7Z"/>
        <path class="cls-2" d="M24.8,27.4c.3,0,7.8,0,7.8,0v6.5h-7.1l-.8-6.5Z"/>
        <path class="cls-2" d="M18.7,36.8h6.9s-.2,5.2,0,5.2,7,1.8,7,1.8v6.8c0,0-13-3.6-13-3.6l-.9-10.3Z"/>
      </g>
    </g>
  </g>
  <g>
    <path class="cls-6" d="M97.3,36.7l8,3.8c-.5,3.5-1.4,6.5-2.5,8.9-1.2,2.4-2.6,4.2-4.3,5.4s-3.9,1.8-6.5,1.8-5.8-.7-7.9-2.2-3.8-4.1-5.3-7.8-2.2-8.4-2.2-14.2,1.3-13.6,3.9-17.7,6.3-6.2,11-6.2,6.6,1.2,8.8,3.6c2.1,2.4,3.7,6,4.7,10.9l-8.1,2.8c-.3-1.4-.6-2.5-.9-3.1-.5-1.1-1.1-1.9-1.9-2.5s-1.6-.9-2.5-.9c-2.1,0-3.6,1.3-4.8,3.9-.8,1.9-1.2,5-1.2,9.2s.5,8.7,1.5,10.6,2.4,2.9,4.2,2.9,3.1-.8,4-2.3,1.5-3.8,1.9-6.7v-.2h.1Z"/>
    <path class="cls-6" d="M108.1,40.4l8.7-.9c.2,2.2.6,3.9,1.1,5.1.9,1.9,2.3,2.8,4,2.8s2.3-.5,3-1.4c.7-1,1.1-2.1,1.1-3.3s-.3-2.3-1-3.2c-.7-1-2.2-1.9-4.7-2.7-4-1.4-6.9-3.3-8.6-5.6-1.7-2.3-2.6-5.3-2.6-9s.4-4.6,1.3-6.8c.9-2.1,2.2-3.8,4-5s4.2-1.8,7.3-1.8,6.6,1.1,8.6,3.3,3.2,5.7,3.5,10.5l-8.6.8c-.2-2.1-.7-3.6-1.4-4.6s-1.7-1.4-3-1.4-1.9.4-2.4,1.1-.8,1.6-.8,2.6.2,1.4.7,2c.4.6,1.4,1.2,3.1,1.7,4,1.4,6.8,2.7,8.6,4.1,1.7,1.4,3,3.1,3.8,5.2.8,2.1,1.2,4.3,1.2,6.9s-.5,5.7-1.6,8.2c-1,2.5-2.5,4.4-4.4,5.7s-4.2,2-7.1,2c-5,0-8.5-1.5-10.4-4.6-1.9-3-3-6.9-3.3-11.6h0Z"/>
    <path class="cls-6" d="M137.9,40.4l8.7-.9c.2,2.2.6,3.9,1.1,5.1.9,1.9,2.3,2.8,4,2.8s2.3-.5,3-1.4c.7-1,1.1-2.1,1.1-3.3s-.3-2.3-1-3.2c-.7-1-2.2-1.9-4.7-2.7-4-1.4-6.9-3.3-8.6-5.6-1.7-2.3-2.6-5.3-2.6-9s.4-4.6,1.3-6.8c.9-2.1,2.2-3.8,4-5s4.2-1.8,7.3-1.8,6.6,1.1,8.6,3.3,3.2,5.7,3.5,10.5l-8.6.8c-.2-2.1-.7-3.6-1.4-4.6s-1.7-1.4-3-1.4-1.9.4-2.4,1.1-.8,1.6-.8,2.6.2,1.4.7,2c.4.6,1.4,1.2,3.1,1.7,4,1.4,6.8,2.7,8.6,4.1,1.7,1.4,3,3.1,3.8,5.2s1.2,4.3,1.2,6.9-.5,5.7-1.6,8.2c-1,2.5-2.5,4.4-4.4,5.7s-4.2,2-7.1,2c-5,0-8.5-1.5-10.4-4.6-1.9-3-3-6.9-3.3-11.6h-.1Z"/>
  </g>
</svg>