<?xml version="1.0" encoding="UTF-8"?>
<svg id="Capa_1" data-name="Capa 1" xmlns="http://www.w3.org/2000/svg" version="1.1" viewBox="0 0 192.8 65.1">
  <defs>
    <style>
      .cls-1 {
        fill: #000;
      }

      .cls-1, .cls-2, .cls-3, .cls-4, .cls-5, .cls-6, .cls-7, .cls-8, .cls-9 {
        stroke-width: 0px;
      }

      .cls-2 {
        fill: #06befb;
      }

      .cls-3 {
        fill: #06d17d;
      }

      .cls-4 {
        fill: #0b0b0b;
      }

      .cls-5 {
        fill: #ac56fb;
      }

      .cls-6 {
        fill: #070707;
      }

      .cls-7 {
        fill: #060606;
      }

      .cls-8 {
        fill: #fb675b;
      }

      .cls-9 {
        fill: #fc3a02;
      }
    </style>
  </defs>
  <path class="cls-1" d="M50.6,6.1v52.9h-1.4V6.1h1.4Z"/>
  <g>
    <path class="cls-6" d="M124.6,33.5v-11.1c0-.9.2-1.3,1.2-1.2h2.2c.9,0,1.5,0,1.5,1.2s.6.3.9,0c2.2-1.9,4.7-2.3,7.5-1.6,1.8.4,3.2,1.4,4.3,2.8.5.7.9.8,1.5,0,2.5-2.9,6.3-4,9.8-2.7,3.6,1.4,5.5,4.3,5.7,8,.2,5.3,0,10.7.1,16,0,.7-.2.8-.9.9q-3.9.2-3.9-3.6v-12c0-2.2-1-3.8-3-4.7-1.9-.9-3.6-.5-5.2.7-1.3,1.1-1.8,2.5-1.8,4.1v14.1c0,1-.3,1.4-1.3,1.3h-2.4c-.9,0-1.1-.3-1.1-1.2v-14.4c0-2-.9-3.6-2.7-4.6-1.7-.9-3.4-.8-5.1.2-1.6,1-2.3,2.6-2.4,4.5v14.1c0,1.1-.3,1.4-1.3,1.3-1.1,0-2.5.5-3.2-.2s-.2-2.1-.2-3.2v-9h0l-.2.3Z"/>
    <path class="cls-6" d="M112.4,22.8c.3-1.1,1-1.7,2.3-1.7s2.1.9,2.6,2.7v19.8c0,7.3-5.6,12.7-12.8,12.4-1.8,0-3.5-.6-5.1-1.4s-.9-.6-.4-1.2c0,0,.2-.3.3-.4.5-.8.8-1.9,1.5-2.5.9-.6,1.7.5,2.6.7,4.5,1.1,8.9-2.1,9.2-6.7v-.3c0-1,.3-2.4-.1-2.8-.7-.5-1.5.7-2.3,1.1-5.3,2.6-11.6.2-14.1-5.5-2.3-5.4-.6-11.9,4-15,3.6-2.4,8.3-2.2,11.7.4.2.1.3.4.6.3h0ZM112.6,31.9c0-3.9-3-7-6.5-6.9-3.5,0-6.4,3.3-6.4,7.1s3.1,6.9,6.6,6.9,6.4-3.3,6.3-7.1h0Z"/>
    <path class="cls-7" d="M183.9,23.6c.6-.8-.4-2,.7-2.4.7-.3,1.7,0,2.5,0h1c.6,0,.8.1.8.8v23.2c0,.6-.1.9-.8.8h-.9c-.9,0-1.9.2-2.6,0-1-.4,0-1.6-.7-2.4-1.6,1.4-3.3,2.4-5.4,2.9-7,1.5-13.6-3.2-14.6-10.5-.5-4.2.3-8,3.1-11.3,4.1-4.9,11.7-5.6,16.9-.8v-.3ZM184.2,33.5c0-3.6-2-6.8-5.2-8-2.8-1.1-5.9-.3-8.2,2.1-4.1,4.3-2.4,11.7,3.2,13.8,4.9,1.9,10.1-2.2,10.2-7.9Z"/>
    <path class="cls-7" d="M57.6,27.4V10.2c0-1,.3-1.3,1.3-1.3h17.2c.9,0,1.2.2,1.2,1.2q0,3.5-3.4,3.5h-10.4c-.8,0-1.1.2-1.1,1v7.9c0,.9.2,1.2,1.1,1.1h9.3c.8,0,1.1.2,1,1.1,0,1.1.5,2.6-.2,3.3-.7.8-2.2.2-3.3.2h-6.7c-1,0-1.2.2-1.2,1.2v15.1c0,.9-.2,1.3-1.2,1.2h-1.3c-1.6,0-2.4-.8-2.4-2.3v-16h0Z"/>
    <path class="cls-4" d="M83.3,33.5v-11.2c0-.9.2-1.2,1.1-1.2h2.8c.7,0,.9.2.9.9v22.9c0,.7-.2,1-.9,1q-3.9.2-3.9-3.6v-8.8Z"/>
    <path class="cls-4" d="M88.8,13.5c0,1.7-1.4,3-3.1,3s-3.1-1.4-3.1-3,1.4-3.2,3.1-3.2,3.1,1.5,3.1,3.2Z"/>
  </g>
  <g>
    <circle class="cls-2" cx="32.1" cy="32.6" r="9.6"/>
    <g>
      <path class="cls-9" d="M13.4,4c-5.2,0-9.5,4.3-9.5,9.5h0c0,5.2,4.3,9.5,9.5,9.5h9.1V4h-9.1Z"/>
      <path class="cls-8" d="M32.7,4h-10.2v19h10.2c5.2,0,9.5-4.3,9.5-9.5h0c0-5.2-4.3-9.5-9.5-9.5Z"/>
    </g>
    <path class="cls-5" d="M13.4,23c-5.2,0-9.5,4.3-9.5,9.5h0c0,5.2,4.3,9.5,9.5,9.5h9.1v-19h-9.1Z"/>
    <path class="cls-3" d="M13.4,42c-5.2,0-9.5,4.3-9.5,9.5h0c0,5.2,4.3,9.5,9.5,9.5h0c5.1,0,9.1-4.1,9.1-9.1v-9.9h-9.1Z"/>
  </g>
</svg>