<?xml version="1.0" encoding="UTF-8"?>
<svg id="Capa_1" data-name="Capa 1" xmlns="http://www.w3.org/2000/svg" version="1.1" viewBox="0 0 250 65.1">
  <defs>
    <style>
      .cls-1 {
        fill: #fabc06;
      }

      .cls-1, .cls-2, .cls-3, .cls-4, .cls-5, .cls-6, .cls-7, .cls-8, .cls-9, .cls-10, .cls-11, .cls-12, .cls-13, .cls-14, .cls-15, .cls-16, .cls-17, .cls-18, .cls-19, .cls-20, .cls-21, .cls-22, .cls-23, .cls-24, .cls-25, .cls-26, .cls-27, .cls-28, .cls-29, .cls-30, .cls-31, .cls-32, .cls-33, .cls-34, .cls-35, .cls-36, .cls-37, .cls-38, .cls-39, .cls-40, .cls-41, .cls-42, .cls-43, .cls-44, .cls-45, .cls-46, .cls-47, .cls-48, .cls-49, .cls-50, .cls-51, .cls-52, .cls-53, .cls-54, .cls-55, .cls-56, .cls-57, .cls-58, .cls-59 {
        stroke-width: 0px;
      }

      .cls-2 {
        fill: #000;
      }

      .cls-3 {
        fill: #eab490;
      }

      .cls-4 {
        fill: #616468;
      }

      .cls-5 {
        fill: #e94436;
      }

      .cls-6 {
        fill: #64676c;
      }

      .cls-7 {
        fill: #f1c945;
      }

      .cls-8 {
        fill: #202647;
      }

      .cls-9 {
        fill: #1a2143;
      }

      .cls-10 {
        fill: #141b3e;
      }

      .cls-11 {
        fill: #fdfcfa;
      }

      .cls-12 {
        fill: #c3c4c6;
      }

      .cls-13 {
        fill: #f9fafa;
      }

      .cls-14 {
        fill: #62656a;
      }

      .cls-15 {
        fill: #e9b28e;
      }

      .cls-16 {
        fill: #fcf9f6;
      }

      .cls-17 {
        fill: #e6a976;
      }

      .cls-18 {
        fill: #e9a42d;
      }

      .cls-19 {
        fill: #606367;
      }

      .cls-20 {
        fill: #f9efe7;
      }

      .cls-21 {
        fill: #eab592;
      }

      .cls-22 {
        fill: #fbfbfb;
      }

      .cls-23 {
        fill: #d87432;
      }

      .cls-24 {
        fill: #4385f3;
      }

      .cls-25 {
        fill: #fbfbfc;
      }

      .cls-26 {
        fill: #faf0e8;
      }

      .cls-27 {
        fill: #fdfdfd;
      }

      .cls-28 {
        fill: #f5820c;
      }

      .cls-29 {
        fill: #65686d;
      }

      .cls-30 {
        fill: #e8ae87;
      }

      .cls-31 {
        fill: #e8af80;
      }

      .cls-32 {
        fill: #626569;
      }

      .cls-33 {
        fill: #23294a;
      }

      .cls-34 {
        fill: #66696e;
      }

      .cls-35 {
        fill: #d97634;
      }

      .cls-36 {
        fill: #e3a26a;
      }

      .cls-37 {
        fill: #63676c;
      }

      .cls-38 {
        fill: #f5dfd0;
      }

      .cls-39 {
        fill: #5f6266;
      }

      .cls-40 {
        fill: #fafafa;
      }

      .cls-41 {
        fill: #5f6166;
      }

      .cls-42 {
        fill: #e4a26a;
      }

      .cls-43 {
        fill: #5e6165;
      }

      .cls-44 {
        fill: #ededee;
      }

      .cls-45 {
        fill: #f9f9fa;
      }

      .cls-46 {
        fill: #191f42;
      }

      .cls-47 {
        fill: #d97837;
      }

      .cls-48 {
        fill: #61656a;
      }

      .cls-49 {
        fill: #35a854;
      }

      .cls-50 {
        fill: #ffcc31;
      }

      .cls-51 {
        fill: #606469;
      }

      .cls-52 {
        fill: #da8225;
      }

      .cls-53 {
        fill: #62666b;
      }

      .cls-54 {
        fill: #ffa919;
      }

      .cls-55 {
        fill: #1d2446;
      }

      .cls-56 {
        fill: #d87431;
      }

      .cls-57 {
        fill: #63666b;
      }

      .cls-58 {
        fill: #9fa6b8;
      }

      .cls-59 {
        fill: #5e6166;
      }
    </style>
  </defs>
  <g>
    <path class="cls-7" d="M-1047.7,13.6c4.3-2.9,7.4-7.1,11.3-10.5,1.1-1,2-2.5,3.7-2,1.8.4,1.9,2.1,2.1,3.5,3.2,19,6.3,38,9.5,56.9.3,2.1-.3,3.3-2.2,4.4-10.8,5.9-21.5,11.9-32.3,17.8-2.8,1.6-5.6,1.4-8.5-.3-10.3-5.8-20.5-11.6-30.9-17.2-3.7-2-3.2-4.5-2.1-7.5.2.1.4.2.6.3,2.5,1.4,3.2-1.1,4.2-2.1,11.3-11.2,22.5-22.4,33.7-33.7,3.7-3.1,6.3-7.5,10.8-9.6Z"/>
    <path class="cls-18" d="M-1047.7,13.6c-2.9,3.8-6.4,7.1-10.1,10.3-3.4-3.3-4.6-8-7.1-11.8-1.7-2.5-2.6-3.3-4.2-.1-6.8,13.8-14.9,26.9-21.6,40.8-1.3,2.7-2.5,5.5-6,6,0,0-.5,0-.5,0,3.9-24.6,7.7-49.2,11.6-73.7.3-1.9-.4-5,2.4-5.4,3.1-.5,3.3,2.8,4.4,4.6,3.8,6.8,7.5,13.6,11.7,21.3,1.6-3,2.8-5.2,4-7.5.9-1.6,1.4-3.8,3.6-3.7,2.1,0,2.7,2.2,3.5,3.8,2.7,5.1,5.4,10.3,8.1,15.4Z"/>
    <path class="cls-38" d="M-1325.9-196.3c-1.1-1.2-2-2.6-3.2-3.7-2.6-2.2-2.2-4.1.3-6,2.1-4,5.4-5.8,9.8-6.2,3.3,1.1,6.5,1.7,10,1.9,4.1.2,7.3-1.1,10.3-3.6,1.6-.4,3.2-.7,4.8-.9,4-.4,7.1,1.8,7.6,5.7.2,1.7.5,3.3,2.5,2.3,3.4-1.7,4.7,1.1,6.6,2.6,2.3,3.8,2.9,7.3-1.6,10-3.3,1.5-6.5.5-9.9.2-5.5-.6-11.1-1.1-16.7-1.7-2.5-.3-5.1,2.7-7.3,4.7h0c-2.5,1.6-5,.4-6.2-1.2-1.9-2.5-4.4-3.1-6.9-4Z"/>
    <path class="cls-24" d="M-590.6,234.5c4.8,4,7.4,9.6,10.2,14.8,4.1,7.6-2.2,17-10.9,17.5-3.6.2-7.3,0-10.9-.1-1.6-2.3-1.4-4.8-.6-7.3,2-2.8,5.1-1.7,7.8-1.9,2.2-.2,4.4-.2,5.5-2.5,1.1-2.3-.7-3.6-2-5.2-2.3-2.9-3.5-6.3-4.9-9.6,1-2.8,2.9-4.7,5.7-5.7Z"/>
    <path class="cls-14" d="M-546.8,247.1c6.2,0,7.5,2.1,4.9,7.6-2.9,6.1-10.8,8.5-17.1,5.1-6.7-3.6-9-12.1-4.9-18.4,3.8-5.9,12.8-7.9,18-3.9.7.5,2,.9,1.1,2.2-1.1,1.5-2.3,1.3-3.9.4-3.6-2.1-7.1-1.4-10.2,1.2-2.8,2.4-3.7,5.5-3,9,.7,3.8,3.2,6.2,6.8,7.2,3.5.9,6.6,0,9-2.8.8-.9,1.6-1.9,1-3.1-.5-1.1-1.8-.5-2.7-.6-.5,0-1,0-1.5,0-1.4-.2-3.8.8-3.6-2,.1-2.3,2.1-1.5,3.5-1.7.8,0,1.7,0,2.5,0Z"/>
    <path class="cls-1" d="M-619.7,264c-7.2-6.4-6.9-14,.8-21.3,2.4-3.3,5.7-3.4,9.3-2.9,1.9.5,3.8,1.3,5.4,2.4,1.7,1.2,3.6,2.5,2.4,4.8-1.3,2.5-3,5.2-6.4,4.7-2.2-.3-4.3-2.3-6.3.2-2,2.5.4,4.3.9,6.5-1.2,2.8-3,5-6.2,5.6Z"/>
    <path class="cls-48" d="M-490.9,260.2c-5.9,1.9-9.8.6-11.7-3.5-1.7-3.8-.2-8.7,3.3-10.9,3.6-2.4,7.3.6,10.9-.3.7-.2.9,1.2.9,2,0,5,0,9.9-.3,14.9-.2,3.1-2.1,5.2-5,6.1-2.8.9-5.6.5-7.8-1.7-.8-.8-2.5-1.6-1.1-3,1-1,1.9-.8,3.3.3,3.9,3,6.1,1.9,7.5-3.8Z"/>
    <path class="cls-5" d="M-609.1,241c-3.5-.5-6.7.4-9.8,1.8,3.7-12.8,18.1-17,28.3-8.2-1.7,1.8-3.4,3.6-5.1,5.4-4.5-.5-9.1-.8-13.4,1Z"/>
    <path class="cls-46" d="M-1222.9-195.9c0,3.4,0,6.3,0,9.3,0,1.2-.3,2-1.6,2-1.4,0-1.6-.9-1.6-1.9,0-7.6,0-15.3,0-22.9,0-.9.5-2.1,1.2-1.6,2.9,1.7,5.3-.8,8-.6,3.4.2,6.1,1.7,7.4,4.9,1.4,3.3,1.2,6.6-.9,9.5-2.1,2.8-5,3.7-8.4,3.1-1.3-.2-2.4-1-4.2-1.7Z"/>
    <path class="cls-56" d="M-1129.9-208.8c4.6-2.7,8.6-2.9,11.8.8,2.4,2.7,2.8,6,1.2,9.3-1.6,3.4-4.3,4.8-8,4.7-2.2,0-4.1-2.5-6.6-.5-.9.7-1.5-.9-1.5-1.9,0-7.2,0-14.3,0-21.5,0-1,0-2.1,1.4-2.2,1.8-.1,1.7,1.2,1.7,2.4,0,2.7,0,5.3,0,8.9Z"/>
    <path class="cls-34" d="M-381.8,246.6c0-2.6,0-4.4,0-6.2,0-1.1.2-2.1,1.4-2.2,1.5-.2,1.4,1.1,1.4,2,0,6.1,0,12.3,0,18.4,0,.6,0,1.5-.5,1.8-1.6,1.4-11.1.2-12.6-1.5-2.8-3-2.9-8.3-.3-11.4,3-3.7,6.5-3.3,10.6-1Z"/>
    <path class="cls-37" d="M-471.7,261.4c-4.3-.5-7.1-2.9-7.9-7.1-.7-4,.9-7.3,4.7-9,3.4-1.5,6.5-.7,8.9,2.3,1.5,1.9,1.9,3.5-1,4.4-1.6.5-3.2,1.1-4.6,2-1.1.7-3.7.3-3,2.4.6,1.7,2.7,1.6,4.4,1.3,1.7-.3,4-3.5,4.7-.3.7,2.8-3,3.3-5.3,4-.3,0-.7,0-1,0Z"/>
    <path class="cls-57" d="M-523,253.1c0,4.8-4,8.6-8.6,8.3-4.4-.2-8.2-4.3-8.1-8.5.1-4.7,4-8.3,8.8-8.2,4.6.2,8,3.7,8,8.4Z"/>
    <path class="cls-47" d="M-1110.1-201.2c2.5,4.6,5.1,6,8.9,3.6,1.1-.7,2.1-1.3,3,0,.6.8,0,1.5-.8,2-3.3,2.2-6.9,2.5-10.3.4-3.6-2.2-4.3-5.8-3.3-9.6,1-3.8,3.9-5.8,7.7-6,3.7-.2,6.4,1.6,7.7,5.1,1.1,2.9.7,4.8-3.2,4.5-2.9-.2-5.9,0-9.7,0Z"/>
    <path class="cls-6" d="M-457,251.3c0-6.5,2.1-10.2,6.3-12.3,3.7-2,7.7-1.9,11.4.4.8.5,2.4,1.1,1.5,2.6-.9,1.5-1.8.5-2.9,0-4.8-2.4-8.9-1.7-11.6,1.9-2.4,3.2-2.3,8.4.3,11.6,2.9,3.4,6.9,3.9,11.7,1.4.9-.5,1.9-1.9,2.9-.4,1.2,1.7-.6,2.4-1.5,3-3.8,2.4-7.8,2.7-11.8.6-4.2-2.2-6.2-5.8-6.3-8.8Z"/>
    <path class="cls-53" d="M-504.9,253.2c-.1,4.6-3.9,8.3-8.3,8.2-4.8,0-8.4-4-8.2-8.8.2-4.6,3.9-8,8.6-7.9,4.6.2,8.1,3.8,7.9,8.5Z"/>
    <path class="cls-9" d="M-1183.8-211.7c4.8-.1,9,3.8,9.1,8.7,0,4.9-3.7,8.9-8.7,9-4.9,0-9-3.8-9.2-8.6-.1-4.7,4-8.9,8.8-9.1Z"/>
    <path class="cls-49" d="M-619.7,264c1.8-1.8,3.6-3.6,5.4-5.4,4.2-1.9,8.3-2.5,12.3.5,0,2.5,0,5.1,0,7.6-6-.2-12.3,2-17.7-2.7Z"/>
    <path class="cls-29" d="M-421.3,261.4c-4.3-.4-7.7-4.6-7.3-9.1.4-4.5,4.5-7.9,8.9-7.4,4.5.5,7.4,4.4,6.9,9.2-.4,4.4-4.3,7.7-8.5,7.3Z"/>
    <path class="cls-35" d="M-1156.6-200.6c-.7,1.8,1.5,5.9-1.5,5.9-3.2,0-1-4-1.6-6.1-.3-.9,0-2,0-3,0-2.3-1-3.9-3.4-4-2.3-.1-3.9,1.3-4.3,3.4-.4,2.1-.1,4.3-.3,6.4-.1,1.3.8,3.5-1.4,3.6-2.7,0-1.4-2.4-1.6-3.8-.2-1.3,0-2.6,0-4,0-7.6,1.5-9,8.8-8.6,4.1.2,5.5,2.6,5.5,10.2Z"/>
    <path class="cls-23" d="M-1137.6-202.2c0,1.7,0,3.3,0,5,0,2.1-.3,4.1-2.9,2.2-1.7-1.2-2.2.6-3.3.8-4.3,1.1-7.7-1.1-8-5.6-.2-2.6,0-5.3,0-8,0-1.1-.1-2.5,1.6-2.4,1.8.1,1.4,1.6,1.4,2.6,0,2.2,0,4.3,0,6.5,0,2.2.9,3.9,3.4,4.1,2.5.2,4.2-1.2,4.5-3.6.3-2.3.1-4.6.2-6.9,0-1.1-.3-2.5,1.5-2.6,1.8,0,1.6,1.3,1.6,2.5,0,1.8,0,3.6,0,5.5Z"/>
    <path class="cls-55" d="M-1262-202.7c0,4.5,3.2,6.7,7.7,5,1.5-.6,2.6-.9,3.2.6.6,1.5-.9,1.9-1.9,2.3-4.1,1.6-7.9,1.1-10.7-2.5-2.7-3.3-2.5-8.3.3-11.5,3.1-3.4,6.9-3.7,10.9-1.9.9.4,2.5.8,1.4,2.4-.8,1.1-1.6,1-2.9.5-4.9-1.9-8,.2-7.9,5Z"/>
    <path class="cls-33" d="M-1198.4-194c-3.4,0-5.1-1.4-5.3-4.5-.1-2.3,0-4.7,0-7,0-1,.5-2.3-1.3-2.8-3.6-1-3.8-2.2.1-3,2.6-.5-.5-4.8,3-4.6,2.9.2,0,3.9,2.6,4.6,1.2.3,3.5-1,3.3,1.6-.1,2.3-2.7.7-3.5,1.6-2.1,2.2-.7,5-.9,7.5-.2,1.5,0,3.1,2,3.5,1.1.2,3-.6,2.5,1.8-.4,1.6-1.8,1-2.5,1.3Z"/>
    <path class="cls-34" d="M-396.8,253.5c0,.2,0,.4,0,.5-1.1,2.1,2.5,6.2-2.2,6.4-3.2.1-6.8,3.1-9.9-.7-1.5-1.9-1.7-4-1.4-6.1.4-2.6-1.4-7.3,1.2-7.3,3.1,0,1,4.6,1.4,7.1.4,2.6.6,5.3,3.9,5.3,3.2,0,4-2.5,4-5.2,0-2,0-4,0-6,0-.9.3-1.7,1.3-1.8,1.4-.2,1.6.9,1.6,1.9,0,2,0,4,0,6Z"/>
    <path class="cls-51" d="M-481.6,248.5c0,3.3,0,6.6,0,9.9,0,1.2,0,2.4-1.7,2.4-1.7,0-1.7-1.1-1.7-2.3,0-6.6,0-13.2,0-19.8,0-1.2,0-2.4,1.7-2.4,1.6,0,1.8,1,1.8,2.3,0,3.3,0,6.6,0,9.9h0Z"/>
    <path class="cls-46" d="M-1247.9-202.9c0-.3,0-.7,0-1,0-6.5,2-8.4,8-7.8.9,0,1.6.5,1.7,1.5,0,.8-.2,1.8-1.2,1.9-5.8.1-5.3,4.3-5.3,8.1,0,1.3,0,2.7,0,4,0,1.1-.3,2-1.7,1.9-1.4,0-1.4-1.1-1.5-2.1,0-2.2,0-4.3,0-6.5Z"/>
    <path class="cls-21" d="M-1277.3-204.1c-2.6-1.6-5.1-3.5-8.3-1.2-.9.6-1.7.1-1.8-1.3-.5-7.1-2.6-8.5-9.4-6.6-.6.2-1.3,0-1.9,0-1.5-7-8.1-7.6-12.9-10.5-.3-.3-.4-.5-.3-.8,0-.3.1-.4.2-.4,4.1-1,13,3.7,13.9,7.4.4,1.8,1.1,2.5,3,2.2,5.2-.6,7.8,1.3,9,6.3.3,1.5,1,2.3,2.3,1.6,3.8-2,4.9.9,6.3,3.3Z"/>
    <path class="cls-34" d="M-434,249.7c0-3,0-5.9,0-8.9,0-1.1-.3-2.5,1.4-2.6,1.8-.1,1.6,1.3,1.6,2.4,0,5.9,0,11.9,0,17.8,0,1.1.2,2.5-1.6,2.3-1.8-.1-1.3-1.6-1.3-2.6,0-2.8,0-5.6,0-8.4Z"/>
    <path class="cls-12" d="M-1107.8-179.1c-6.2-.2-12.5,2-18.7,0-.8-.6-.8-1.3-.1-2,5.2,0,10.2-2.1,15.5-.4,1.6.5,3.3,0,3.3,2.4h0Z"/>
    <path class="cls-15" d="M-1312.8-191c3.1-4.7,6.6-6.1,11.6-4.7,3.3.9,6.6,2.3,10.1.3.4-.2,1.2-.6,1.3-.4,3.2,3.5,7.1,2.1,10.9,1.7-2.7,2.4-5,2.6-9,1.5-5.6-1.5-11.9-1.3-17.9-2.2-2.5-.4-4,3.7-7.1,3.8Z"/>
    <path class="cls-26" d="M-1154.6-174.2c-1.7.4-2.6-.9-3.7-1.8-2.8-2.6-3.1-5.3,0-7.8,2.6-2.1,4.9-1.4,7.5,2.2,2.1,4.2-2.1,5.2-3.8,7.4Z"/>
    <path class="cls-10" d="M-1231.3-202.3c0,2,0,4,0,6,0,1.1-.3,2-1.6,2-1.2,0-1.8-.6-1.7-1.9,0-4.3,0-8.6,0-12.9,0-1.1.2-1.9,1.6-2,1.7,0,1.8,1.1,1.8,2.3,0,2.2,0,4.3,0,6.5Z"/>
    <path class="cls-58" d="M-1166-176.3c-.5-3.4-5.5.4-5.7-3.7,0-1.6-.1-4,2.1-3.6,2.2.4,4.4,1.9,6.2,3.3.3.3-.6,3.1-2.6,4Z"/>
    <path class="cls-31" d="M-1126.7-181c0,.7,0,1.3.1,2-2.7,2.5-7.2,2.5-12.2-.1h0c1.1-1.4,1.4-2.8,4.3-2,2.1.6,5.1-.7,7.8,0Z"/>
    <path class="cls-31" d="M-1138.8-179.1c-1.3.6-.9,3-3.1,2.8-1.3-.9,1.2-1.9,0-3-1.1.3-1.9,1.7-3.5,1.4-1.7-.3-3.5,0-3.1-2.6.3-2.3,1.2-1.7,3-1.2,2.4.7,5.7-1.3,6.8,2.7,0,0,0,0,0,0Z"/>
    <path class="cls-3" d="M-1311.8-224.9c0,.4,0,.7,0,1.1-3.9,3.4-6.9,7.3-7,12.8-4.5-.5-7.3,2.3-10.1,5.1,0-2.4,1.2-4.1,3.5-4.8,2.9-1,4.9-2.9,5.2-5.9.5-5.2,4.1-7,8.3-8.2Z"/>
    <path class="cls-12" d="M-1107.8-179c1.3-.4.9-3.3,2.4-2.5,2.7,1.5,5.4-1.1,7.8.4,1.4.9.1,3.3-.1,3.1-3.2-2.6-7,1.9-10-1.1,0,0,0,0,0,0Z"/>
    <path class="cls-17" d="M-1150.8-181.1c-1.8-2.6-4-4.3-7.1-2.4-3.2,2.1-2,4.8-.5,7.4-3.8-1.1-3.9-3.8-2.3-6.5,1.6-2.7,4-4.4,7.5-2.6,1.8.9,2.8,2.2,3.2,4.1-.3.5-.6.5-.9,0Z"/>
    <path class="cls-30" d="M-1325.9-196.3c2.6.5,5.3,0,7,3.3,1.1,2.1,3.9,2,6.2,2-2.5,3.9-6,.7-6.8-.5-1.7-2.5-4.5-2.9-6.4-4.7Z"/>
    <path class="cls-8" d="M-1230.7-217.3c0,1.3-.7,2.2-2,2.3-1.4.1-2.2-.7-2.4-2-.2-1.4.7-2.2,2-2.3,1.3-.1,2.2.6,2.4,2Z"/>
    <path class="cls-42" d="M-1150.8-181.1c.3,0,.6,0,.9,0,.7,3.8-1.4,5.8-4.7,6.9.6-2.6,4.6-3.4,3.8-6.9Z"/>
    <path class="cls-52" d="M-1096.6,58.8c6.5-6.4,8.7-15.4,13.4-22.8,5.4-8.5,9.5-17.8,14.2-26.7,1-2,2.2-3.3,3.7-.4,2.5,5,6.1,9.5,7.6,15-13,12.6-26,25.2-38.9,37.8-.5-.6,0-1.8.1-2.9Z"/>
    <path class="cls-20" d="M-1318.7-211c-1.8-5.3.3-9.2,7-12.8,3.8-.2,6.8,2.1,10.1,3.5,3,1.3,3.1,4.3,2.9,7.2-4,5-12.2,5.9-19.9,2Z"/>
    <path class="cls-27" d="M-602,259.1c-4.1-.2-8.2-.3-12.3-.5-2.3-2.3-3.8-4.8-1.4-7.7,2.2-2.6,4.5-2.3,7.4-.5,3.1,1.9,3.7-2.1,5.4-3.3,2.1-1.4,0-2.5-1-3.3-1.6-1.1-3.4-1.9-5.1-2.9,4.2-4.2,8.7-3.6,13.4-1,3.2,3.6,3.7,8.7,7.6,12.1,2.5,2.2-.3,6.4-4.2,6.8-3.3.3-6.6.2-9.9.3Z"/>
    <path class="cls-40" d="M-490.8,252.9c-.2,2.9-1.3,5-4.4,5-3,0-4.6-2-4.7-4.8-.1-2.9,1.6-4.9,4.4-5,3-.1,4.3,2,4.6,4.8Z"/>
    <path class="cls-40" d="M-1211.9-202.8c-.3,3.2-1.7,5.7-5.4,5.8-3.6,0-5.5-2-5.6-5.5-.2-3.8,1.8-6.2,5.5-6.2,3.5,0,5.2,2.4,5.5,5.9Z"/>
    <path class="cls-11" d="M-1119.3-202.1c-.4,3-1.9,5.1-5.4,5.1-3.4,0-5.2-2-5.2-5.3,0-3.6,1.9-5.7,5.5-5.6,3.3.1,4.8,2.4,5.1,5.8Z"/>
    <path class="cls-25" d="M-381.7,253c-.1,3.1-1.4,5.6-4.8,5.6-3.2,0-4.7-2.2-4.7-5.3,0-3.2,1.1-5.6,4.8-5.6,3.3,0,4.6,2.2,4.8,5.3Z"/>
    <path class="cls-44" d="M-476.4,253.1c1.6-4.8,3.5-6.3,7.6-4.1-1.9,2.2-4.5,2.3-7.6,4.1Z"/>
    <path class="cls-13" d="M-526.8,253.5c-.2,2.6-1.7,4.4-4.7,4.3-2.9-.1-4.5-2-4.4-4.9,0-3.1,1.7-5.1,4.9-4.9,2.9.2,4.3,2.2,4.2,5.5Z"/>
    <path class="cls-16" d="M-1100.4-204.1h-9.1c.6-3,2.4-4.2,5.1-4.1,2.4.1,4,1.2,4,4.1Z"/>
    <path class="cls-22" d="M-508.6,253c-.4,2.9-1.7,4.9-4.7,4.9-3,0-4.5-2.1-4.6-4.9,0-3.1,1.7-5.1,4.9-5,3,.1,4.2,2.3,4.4,5Z"/>
    <path class="cls-45" d="M-1177.9-202.8c-.4,3.2-1.7,5.8-5.4,5.9-3.6,0-5.5-2-5.6-5.5-.2-3.8,1.7-6.2,5.5-6.2,3.5,0,5.2,2.4,5.6,5.9Z"/>
    <path class="cls-40" d="M-415.7,252.8c-.1,3.3-1.5,5.7-4.9,5.8-3.4,0-5.1-2.4-5.1-5.5,0-2.8,1.4-5.2,4.7-5.4,3.5-.2,5,1.9,5.3,5.1Z"/>
    <path class="cls-36" d="M-1156.9-181.9c1.8.1,4-1,4.2,2,0,.4,0,1.3-.6.9-1.2-1-3.6-.1-3.7-2.9Z"/>
  </g>
  <g>
    <path class="cls-2" d="M53.5,6.1v52.9h-1.4V6.1h1.4Z"/>
    <g>
      <path class="cls-54" d="M13.8,8.5l-6.7,38.7,15.7-29.8,4.8,9.3,5.1-5.1-4.8-8.1c-.6-1-2.1-1.1-2.8,0l-2.4,4-5.8-9.5c-.8-1.3-2.8-.9-3.1.6Z"/>
      <polygon class="cls-28" points="22.7 17.4 7 47.2 27.5 26.7 22.7 17.4"/>
      <path class="cls-50" d="M7,47.2L39,15.2c.7-.7,1.8-.4,1.9.5l5.1,31.5-16.6,9.9c-1.8,1.1-4.1,1.1-6,0l-16.5-9.9Z"/>
    </g>
    <g>
      <path class="cls-39" d="M59.6,32.2c0-6.2,0-12.4,0-18.7,0-2.2.3-3.2,2.5-3.2,5.8.2,11.6.1,17.4,0,1.9,0,2.5.6,2.5,2.9,0,2.4-.9,2.8-2.6,2.7-4.1-.1-8.2,0-12.4,0-1.7,0-2.5.4-2.4,2.6.1,3,.1,6.1,0,9.2,0,2,.6,2.5,2.2,2.5,3.8-.1,7.7,0,11.5,0,1.9,0,2,1,2,2.7,0,1.7-.1,2.8-2,2.7-3.8-.1-7.6,0-11.5,0-1.7,0-2.2.6-2.2,2.5,0,4.5,0,9.1,0,13.6,0,2.6-1.1,2.6-2.7,2.6-1.7,0-2.5-.4-2.4-2.6.1-6.4,0-12.9,0-19.3Z"/>
      <path class="cls-41" d="M205,23.3c3.2.1,6.3,1.1,8.6,4.4.5.7,1.8,2,.5,2.7-1.1.7-2.5,2.8-4,.7-2.3-3.1-5.2-3.2-8.3-2.1-1.3.5-2.3,1.5-2.2,3.2,0,1.6,1,2.5,2.2,2.9,2.2.7,4.4,1.3,6.5,1.9,4.6,1.4,7.1,4.5,7.1,8.7,0,4.4-2.8,7.8-7.4,9.1-4.9,1.4-9.9-.6-12.7-5.2-.6-.9-2.2-2.2-.6-3.3,1.2-.8,2.8-2.9,4.4.1,1.8,3.4,4.7,4.2,8,3.4,1.7-.4,3.3-1.2,3.4-3.6.1-2.4-1.3-3.5-2.9-4.1-2.5-.9-5.1-1.5-7.6-2.5-3.8-1.5-5.6-4.6-5.2-8.3.4-4.1,3.9-7.4,8.4-7.9.6,0,1.2,0,2-.1Z"/>
      <path class="cls-19" d="M100.8,28c2.3-3,5-5,8.5-4.5,1,.1,2.7,0,2.2,1.7-.4,1.4-.2,3.8-2.5,3.9-6.2.2-8.3,2.7-8.3,10,0,4.2-.1,8.4,0,12.5,0,2.4-1,2.4-2.5,2.4-1.6,0-2.5-.2-2.5-2.5.1-8.2,0-16.5,0-24.7,0-2,.4-2.8,2.3-2.8,1.8,0,2.9.3,2.6,2.7,0,.3.1.6.3,1.2Z"/>
      <path class="cls-4" d="M85.4,38.7c0-4.1.1-8.1,0-12.2,0-2.4,1-2.5,2.5-2.5,1.5,0,2.7,0,2.6,2.4,0,8.5,0,16.9,0,25.4,0,2.5-1.3,2.2-2.7,2.3-1.6,0-2.6-.2-2.5-2.5.1-4.3,0-8.6,0-12.9Z"/>
      <path class="cls-32" d="M91.4,13.8c-.2,2.6-1.5,4.1-3.6,4-2.1,0-3.5-1.7-3.4-4.2,0-2.4,1.4-3.7,3.5-3.8,2.2,0,3.3,1.5,3.6,4Z"/>
      <path class="cls-39" d="M162.5,28.5c-1.9-2.6-4.1-4.5-7-5.1-4.2-.8-7.9.6-11.1,4.5,0-5.2,0-9.8,0-14.3,0-2.2-.3-3.2-2.5-3.2-2.3,0-2.5,1.1-2.5,3.3,0,12.4,0,24.8,0,37.3,0,2.6.7,3.1,2.8,3.2,2.4.1,1.8-1.9,2.2-3.3,7.3,5.8,12.8,5.8,17.6-.2,4.9-6.1,5.1-15.7.6-22.1ZM152.1,50c-4.6-.1-8-4.8-7.9-10.9,0-6.4,3.5-10.8,8.4-10.6,4.8.2,8.3,4.8,8.2,11-.1,6.1-3.8,10.6-8.7,10.5Z"/>
      <path class="cls-59" d="M231.6,23.3c-9-.7-15.5,7.8-14.2,18.7.7,5.9,4.7,11.2,9.5,12.6,5.5,1.6,11-.4,13.9-5.2.4-.7,1.4-1.4.6-2.6-1.1-1.5-3.6-1.5-4.8.2-2.1,2.9-5,3.6-8,2.7-3.2-.9-5.2-3.4-6.1-7.1-.4-1.9.2-2.4,1.8-2.4,2.7,0,5.5,0,8.2,0,2.8,0,5.7,0,8.5,0,1.1,0,1.8-.2,1.9-1.8.4-7.4-5-14.6-11.4-15.1ZM235.5,35.6c-1.9,0-3.7,0-5.6,0-1.6,0-3.1,0-4.7,0-.8,0-2,.6-2.3-.6-.3-1,.5-1.9,1-2.7,3.2-5.3,10.7-5,13.1.5.8,1.8.8,3-1.4,2.9Z"/>
      <path class="cls-39" d="M117.5,40.2c2.7.1,5.5,0,8.2,0,2.7,0,5.5,0,8.2,0,1.4,0,2.2-.4,2.1-2.3-.3-5.5-2.1-10.1-6.4-13-8.8-5.9-18.9,1.4-19.3,13.9-.2,6.7,3.3,13,8.5,15.3,5.3,2.3,11.5.5,14.6-4.3.6-.9,2.3-2.1.6-3.2-1.2-.9-2.8-2.8-4.4,0-1.8,3.2-4.8,3.8-7.9,3-3.1-.7-5.1-3.2-6.1-6.6-.6-2-.3-3,1.7-2.9ZM116.8,32.5c1.7-3.1,4.1-4.4,7.2-4.1,2.8.3,5,1.7,6.3,4.8.7,1.6.6,2.6-1.3,2.5-2,0-3.9,0-5.9,0-1.7,0-3.3,0-5,0-.7,0-1.7.5-2.1-.6-.3-.9.3-1.7.7-2.5Z"/>
      <path class="cls-43" d="M191.3,50.3c0-4.6,0-9.3,0-13.9.1-5.8-2-9.9-6.6-12-4.8-2.1-9.4-1.7-13.4,2.5-.8.9-2.1,1.9-1.7,3.3.3,1.4,1.9,1.3,2.9,1.9,1.3.9,1.6-.7,2.2-1.4,2-2.2,5.7-3.1,8.2-1.6,2.4,1.4,4.1,3.4,3.5,7.1-3.4-1.6-6.8-1.8-10.2-1.2-5.7,1.1-8.8,5.7-8,11.9.6,5,5.6,8.9,10.7,8.1,2.9-.4,5.3-1.9,7.7-5.3-.4,3.5.5,4.4,2.8,4.3,2.8-.1,1.9-2.3,1.9-3.9ZM183.1,48.3c-2.1,1.7-4.4,2.2-6.9,1-1.5-.8-2.8-1.7-2.9-3.8-.2-2.1.8-3.7,2.2-4.8,1.6-1.2,3.4-1.6,5.9-1.5,1.5.2,4.2,0,4.9,2.6.8,2.8-1.3,5-3.3,6.6Z"/>
    </g>
  </g>
</svg>