<?xml version="1.0" encoding="UTF-8"?>
<svg id="Capa_1" data-name="Capa 1" xmlns="http://www.w3.org/2000/svg" version="1.1" viewBox="0 0 223.7 65.1">
  <defs>
    <style>
      .cls-1 {
        fill: #e54d26;
      }

      .cls-1, .cls-2, .cls-3, .cls-4, .cls-5 {
        stroke-width: 0px;
      }

      .cls-2 {
        fill: #000;
      }

      .cls-3 {
        fill: #f16528;
      }

      .cls-4 {
        fill: #ebebeb;
      }

      .cls-5 {
        fill: #fff;
      }
    </style>
  </defs>
  <path class="cls-2" d="M62.9,5.2v52.9h-1.4V5.2h1.4Z"/>
  <g>
    <polygon class="cls-1" points="4.4 4.5 53.7 4.5 49.2 55 28.8 60.6 8.8 54.8 4.4 4.5"/>
    <polygon class="cls-3" points="29.1 8.4 49.2 8.4 45.5 51.3 29.1 55.8 29.1 8.4"/>
    <polygon class="cls-5" points="29.1 14.5 44.5 14.5 44 20.9 29.1 20.9 29.1 14.5"/>
    <polygon class="cls-4" points="13.7 14.5 29.1 14.5 29.1 20.9 20.4 20.9 20.9 27.3 29.1 27.3 29.1 33.5 15.3 33.5 13.7 14.5"/>
    <polygon class="cls-5" points="43.5 27.2 41.8 46.3 29.1 49.6 29.1 43 35.8 41.5 36.6 33.5 29.1 33.5 29.1 27.3 43.5 27.2"/>
    <polygon class="cls-4" points="15.5 36.5 21.9 36.5 22.2 41.3 29.1 43 29.1 49.6 16.3 46.1 15.5 36.5"/>
  </g>
  <g>
    <path class="cls-2" d="M74.7,11.7h10.4v14.1h11.4v-14.1h10.5v40.2h-10.5v-16.3h-11.4v16.3h-10.4V11.7Z"/>
    <path class="cls-2" d="M111.6,11.7h31.7v9.9h-10.6v30.3h-10.4v-30.3h-10.6v-9.9h0Z"/>
    <path class="cls-2" d="M148,11.7h13.7l5.3,24.5,5.3-24.5h13.7v40.2h-8.6v-30.7l-6.6,30.7h-7.7l-6.6-30.7v30.7h-8.6V11.7h.1Z"/>
    <path class="cls-2" d="M192.6,11.7h10.4v30.3h16.3v9.9h-26.7V11.7Z"/>
  </g>
</svg>