<?xml version="1.0" encoding="UTF-8"?>
<svg id="Capa_1" data-name="Capa 1" xmlns="http://www.w3.org/2000/svg" version="1.1" viewBox="0 0 207.7 65.1">
  <defs>
    <style>
      .cls-1 {
        fill: #000;
      }

      .cls-1, .cls-2, .cls-3, .cls-4 {
        stroke-width: 0px;
      }

      .cls-2 {
        fill: #281400;
      }

      .cls-3 {
        fill: #f67a05;
      }

      .cls-4 {
        fill: #f87903;
      }
    </style>
  </defs>
  <path class="cls-1" d="M794.3,701.7v181.4h-1.1v-181.5h1.1Z"/>
  <g>
    <path class="cls-1" d="M65.9,6.1v52.9h-1.4V6.1h1.4Z"/>
    <g>
      <path class="cls-1" d="M161.3,58.5c-1.4-.4-3.7,1.2-4.1-1.1-2.1.5-4.1,1.2-6.2,1.4-2.4.2-4.2-1.1-5.1-3.1-.8-2-.4-3.9,1.2-5.5,1.8-1.7,4.1-2.2,6.5-2.5,1,0,2,0,2.9-.2-.2-3.3-2.8-4-8.7-2.2-.2-.4-.5-.9-.9-1.5-.1.5-.2.9-.4,1.3-4.6.4-5.6,1.5-5.6,5.6v7.2c0,0,0,.2-.2.5h-4.4v-16.4c3.5-.7,3.7-.6,4,2.7,1.4-1.9,3-3.2,5.5-3.2s1,.5,1.5.7c2.4-.2,5.4-.7,8.2-.5,3.4.2,5.4,2.2,5.6,5.2.2,3.8,0,7.6,0,11.7h.2ZM156.7,50.1c-1.7.3-3.3.5-4.7,1-1.6.6-2.2,2.1-1.5,3.5s2,1.6,3.6,1.2c2.5-.6,3.2-2,2.7-5.7h-.1Z"/>
      <path class="cls-1" d="M126.1,41.9c.6-3.7.8-3.8,5-4.2v4h4.4v3.1h-4.2c0,3.1-.2,6.1,0,9,.2,2,2.2,1.7,4.2,1.7-.2,1.1-.2,2.9-.6,3-1.7.3-3.6.4-5.3,0-1.8-.3-2.9-1.8-3-3.5-.2-2.6-.2-5.1-.3-7.7v-2.4c-.9,0-1.6,0-2.4-.2,0-.4-.2-.8-.3-1.4-.4.7-.7,1.2-.9,1.7-1.3-.2-2.5-.5-3.8-.6-1.2,0-2.4,0-2.7,1.3-.4,1.3.6,1.8,1.7,2.3.8.3,1.6.5,2.4.9,2.9,1.1,4.3,3,4.1,5.2-.2,2.3-1.9,4-4.9,4.5-1.7.3-3.6.3-5.4,0-3.2-.4-3.4-.9-1.9-3.6,1.5.3,3,.8,4.5.9,1.3,0,2.7,0,3.1-1.5.4-1.5-.8-2.1-2.1-2.6-1.1-.4-2.3-.8-3.3-1.3-1.8-1-2.9-2.3-2.7-4.3.2-1.9,1.2-3.4,3.2-4,1.7-.5,3.6-.6,5.4-.7,1.9,0,3.8.2,5.7.3h.1Z"/>
      <path class="cls-1" d="M182,58.9c-5.6,0-9.4-3.6-9.4-8.8s4.1-8.8,9.7-8.7c5.7,0,9.6,3.6,9.5,8.7,0,5.3-4.1,8.8-9.9,8.8h0ZM177.2,50.1c.4,1.3.6,2.5,1.1,3.5.7,1.4,2,2.3,3.8,2.3s3.1-.8,3.9-2.2c1.4-2.5,1.4-5,0-7.4-1.6-2.7-5.7-2.7-7.3,0-.7,1.1-.9,2.5-1.3,3.7h-.2Z"/>
      <path class="cls-1" d="M105.5,41.8h4.4v16.6h-3.7c0-.6-.2-1.2-.4-1.8-1.4.7-2.7,1.6-4.2,2.1-3.7,1.1-7.2-.5-8.1-3.9-.4-1.6-.4-3.3-.4-5v-7.8h4.6v5.7c0,1.6,0,3.2.2,4.8.3,2.2,1.5,3.2,3.6,3.1,2.2,0,3.7-1.5,3.8-3.5v-9.1c0-3,0-.6,0-1h0v-.2Z"/>
      <path class="cls-1" d="M125.1,5.8h2.7v8.7c1.2-.7,2.1-1.4,3.2-1.8,4.1-1.5,8.3.6,9.3,4.7.6,2.5.4,5-1.2,7.2-2.6,3.7-7.1,4-11.5.6-.1.6-.2,1.2-.4,1.9h-2.2V5.8h0ZM127.9,20c0,2.6.6,4,2.2,4.9,3.5,2,7.3-.3,7.5-4.5.2-3.6-1.7-6.1-4.8-6.1s-4.9,2.1-4.9,5.8h0Z"/>
      <path class="cls-1" d="M101.6,13.7v-5.9c0-1.5.9-2.2,2.8-2v21.3h-2.2c0-.7-.3-1.2-.4-1.7-1.5.7-2.8,1.5-4.3,1.9-.9.3-2.1.2-3.1,0-3.9-.9-6-4.9-5-9.4.8-3.6,4-6,7.8-5.6,1.4.1,2.8.9,4.5,1.4h-.1ZM101.6,19.6v-1.6c-.2-2-1.5-3.3-3.5-3.7-2.1-.4-4.2.3-5,2.1-.6,1.4-1,3.1-.9,4.7.2,2.8,2.5,4.5,5.1,4.4,2.6-.2,4.2-2,4.4-4.8v-1.1h0Z"/>
      <path class="cls-1" d="M164.2,45c-1,0-1.7,0-2.5-.2v-2.9c.8,0,1.5-.2,2.2-.3.2-1,0-2.5.8-3,1-.7,2.6-.8,4.1-1.2v4.2h4.4v3.1h-4.3c0,3-.1,5.9,0,8.7.1,2.3,2.3,1.9,3.9,2,.6,3,.2,3.4-2.9,3.4s-5.6-1.6-5.8-5.1c-.1-2.9,0-5.8,0-8.9h0v.2Z"/>
      <path class="cls-1" d="M79.2,34.2h4.3v24.2h-4.3v-24.2Z"/>
      <path class="cls-1" d="M90.7,58.5h-4.3v-24.2h4.3v24.2Z"/>
      <path class="cls-1" d="M115,12.2c4.6,0,7.8,3.1,7.8,7.5s-3.4,7.9-8.2,7.9-8-3.4-8-7.7,3.5-7.7,8.4-7.7h0ZM109.6,19.8c.1.8.2,1.5.4,2.3.7,2.2,2.4,3.5,4.5,3.5s4.3-1.2,4.7-3.4c.3-1.7.2-3.6-.3-5.2-.6-2.1-2.8-3-5-2.7-2.6.4-4.2,2.5-4.4,5.5h.1Z"/>
      <path class="cls-1" d="M76.2,35.4v23h-4.4c0-.6,0-1.2,0-1.9v-18.8c0-1.6.9-2.5,2.7-2.4h1.8Z"/>
      <path class="cls-1" d="M144.5,20.1c0,4.7,2.6,5.9,10,4.9.8,1.2.5,1.9-1.1,2-2.1.1-4.2.4-6.1.1-4.2-.7-6.6-4.8-5.5-9.2.6-2.5,2-4.4,4.8-5.4,5.5-1.8,9.9,1.6,9.4,7.5h-11.5ZM144.6,18.3h8.5c-.2-2.8-1.7-4.3-4.1-4.3s-4.2,1.7-4.4,4.3h0Z"/>
      <path class="cls-1" d="M196.7,41.9c.1.9.3,1.7.4,2.5,1-.8,1.7-1.7,2.7-2.2.9-.5,2.1-.6,3.3-1v3.8c-4.7.9-5.5,1.8-5.5,6v7.4h-4.6v-14.4c0-2.3-.1-2.3,2.4-2.2.4,0,.8,0,1.3,0h0Z"/>
      <path class="cls-1" d="M88.3,25.5c-2.3-6-4.5-12-7-17.9-.2-.5-1.6-.8-2.4-.8s-1.6.7-1.8,1.2c-2.3,5.8-4.6,11.7-6.8,17.6-.2.5-.3,1-.4,1.4,2,.6,3.2,0,3.5-1.7.2-.8.6-1.5.8-2.2.4-2,1.6-2.5,3.7-2.4,5.5.1,5.6,0,7.1,4.6.6,1.8,1.6,2.3,3.7,1.7-.2-.6-.3-1-.4-1.5h0ZM75.9,18.6c0-.4,0-.7.2-1,1-2.7,2-5.4,3.1-8.4,1.2,3.3,2.3,6.3,3.5,9.4,0,0-6.8,0-6.8,0Z"/>
    </g>
    <g>
      <path class="cls-4" d="M4.8,5.7h52.3c.8,0,1,.2,1,1v51.4c0,.8-.2,1-1,1H5.7c-.8,0-1-.2-1-1V5.8h.1ZM31.4,56.7h23.1c1,0,1.4-.2,1.4-1.3V9.4c0-1.1-.3-1.4-1.4-1.4H8.5c-1.2,0-1.4.4-1.4,1.5v45.9c0,1.1.3,1.4,1.4,1.4h23.1-.2Z"/>
      <path class="cls-2" d="M31.4,56.7H8.3c-1.1,0-1.4-.3-1.4-1.4V9.4c0-1.1.3-1.5,1.4-1.5h46c1.2,0,1.4.3,1.4,1.4v46c0,1.1-.4,1.3-1.4,1.3h-23.1.2ZM43.1,24.5c-1-.1-1.9-.1-2.8,0-.6,0-.5.5-.5.8v16.7c0,.3-.2.9.5.8,1,0,2,0,3.1,0,.4,0,.4-.3.4-.6v-17.1c0-.4,0-.9-.6-.7h-.1ZM34.2,42.9h.6c1.1,0,1.5-.5,1.2-1.6-2-7-4-14.1-6.1-21.1-.5-1.6-1.5-2.4-3.2-2.4s-1.6-.2-2.2,0c-.8.3-.3,1.4-.6,2v.2c-1.9,6.7-3.7,13.3-5.6,20q-.8,2.8,2.1,2.8c.8,0,1.1-.3,1.3-1,.4-1.7.9-3.4,1.3-5.2.2-.7.5-.9,1.1-.9h5.3c.7,0,1,.3,1.1.9.3,1.4.7,2.8,1.1,4.2q.5,1.9,2.5,1.9h0v.2ZM41.7,21.8c1.4,0,2.2-.9,2.3-2.3,0-1.4-.9-2.4-2.3-2.4s-2.3,1-2.2,2.4c0,1.5.8,2.3,2.3,2.3h0Z"/>
      <path class="cls-3" d="M34.2,42.9q-2,0-2.5-1.9c-.4-1.4-.8-2.8-1.1-4.2-.2-.6-.4-.9-1.1-.9h-5.3c-.7,0-1,.2-1.1.9-.4,1.7-.9,3.5-1.3,5.2-.2.8-.5,1-1.3,1q-2.9,0-2.1-2.8c1.9-6.7,3.7-13.3,5.6-20v-.2c.3-.7-.2-1.7.6-2,.6-.3,1.5,0,2.2,0,1.6,0,2.7.8,3.2,2.4,2,7,4,14.1,6.1,21.1.3,1.1,0,1.6-1.2,1.6h-.6v-.2ZM26.8,22.4c0,0-.2.1-.2.2-.7,3-1.4,6-2.2,8.9-.2.6.2.6.6.6h3.4c.8,0,1-.2.7-1-.8-2.9-1.6-5.9-2.4-8.8h.1Z"/>
      <path class="cls-4" d="M40.2,24.5c1-.1,1.9-.1,2.9,0,.2.5.2,1,.2,1.5v16.8c-1,0-2,0-3.1,0-.2-.6-.2-1.2-.2-1.9v-14.9c0-5,0-1.1.2-1.6h0Z"/>
      <path class="cls-3" d="M41.7,21.8c-1.4,0-2.2-.9-2.3-2.3,0-1.4.9-2.4,2.2-2.4s2.3,1,2.3,2.4-.9,2.3-2.3,2.3h0Z"/>
      <path class="cls-3" d="M43.3,42.8v-16.8c0-.5,0-1-.2-1.5.7-.2.6.3.6.7v17.1c0,.3,0,.6-.4.6h0Z"/>
      <path class="cls-3" d="M40.2,24.5c-.2.5-.2,1.1-.2,1.6v14.9c0,.6,0,1.3.2,1.9-.7,0-.5-.5-.5-.8v-16.7c0-.4,0-.9.5-.8h0Z"/>
      <path class="cls-2" d="M26.8,22.4c.8,3,1.6,5.9,2.4,8.8.2.7,0,1-.7,1h-3.4c-1.1,0-.8,0-.6-.6.7-3,1.5-6,2.2-8.9,0,0,0,0,.2-.2h-.1Z"/>
    </g>
  </g>
</svg>