<?xml version="1.0" encoding="UTF-8"?>
<svg id="Capa_1" data-name="Capa 1" xmlns="http://www.w3.org/2000/svg" version="1.1" viewBox="0 0 234.3 65.1">
  <defs>
    <style>
      .cls-1 {
        fill: #4580dc;
      }

      .cls-1, .cls-2, .cls-3, .cls-4, .cls-5, .cls-6, .cls-7, .cls-8, .cls-9, .cls-10, .cls-11, .cls-12, .cls-13, .cls-14, .cls-15, .cls-16, .cls-17, .cls-18, .cls-19, .cls-20, .cls-21, .cls-22, .cls-23, .cls-24, .cls-25, .cls-26, .cls-27, .cls-28, .cls-29, .cls-30, .cls-31, .cls-32, .cls-33, .cls-34, .cls-35, .cls-36, .cls-37, .cls-38, .cls-39, .cls-40, .cls-41, .cls-42, .cls-43, .cls-44, .cls-45, .cls-46, .cls-47, .cls-48, .cls-49, .cls-50, .cls-51, .cls-52, .cls-53, .cls-54, .cls-55, .cls-56, .cls-57, .cls-58, .cls-59, .cls-60, .cls-61, .cls-62, .cls-63, .cls-64, .cls-65, .cls-66, .cls-67, .cls-68, .cls-69, .cls-70, .cls-71, .cls-72, .cls-73, .cls-74, .cls-75, .cls-76 {
        stroke-width: 0px;
      }

      .cls-2 {
        fill: #7970e1;
      }

      .cls-3 {
        fill: #e8793f;
      }

      .cls-4 {
        fill: #dd6f66;
      }

      .cls-5 {
        fill: #e5764c;
      }

      .cls-6 {
        fill: #5a79de;
      }

      .cls-7 {
        fill: #7b70e2;
      }

      .cls-8 {
        fill: #000;
      }

      .cls-9 {
        fill: #138fd6;
      }

      .cls-10 {
        fill: #0b91d5;
      }

      .cls-11 {
        fill: #0792d5;
      }

      .cls-12 {
        fill: #248ad8;
      }

      .cls-13 {
        fill: #2c86d9;
      }

      .cls-14 {
        fill: #806ee2;
      }

      .cls-15 {
        fill: #3883da;
      }

      .cls-16 {
        fill: #0094d4;
      }

      .cls-17 {
        fill: #108fd6;
      }

      .cls-18 {
        fill: #ea7a39;
      }

      .cls-19 {
        fill: #7073e0;
      }

      .cls-20 {
        fill: #3185d9;
      }

      .cls-21 {
        fill: #c657bb;
      }

      .cls-22 {
        fill: #e0725b;
      }

      .cls-23 {
        fill: #e77745;
      }

      .cls-24 {
        fill: #6775df;
      }

      .cls-25 {
        fill: #c95ab0;
      }

      .cls-26 {
        fill: #f2831a;
      }

      .cls-27 {
        fill: #0a91d5;
      }

      .cls-28 {
        fill: #cf6098;
      }

      .cls-29 {
        fill: #2a87d9;
      }

      .cls-30 {
        fill: #447fdb;
      }

      .cls-31 {
        fill: #f58610;
      }

      .cls-32 {
        fill: #3c82db;
      }

      .cls-33 {
        fill: #db6d6d;
      }

      .cls-34 {
        fill: #3285da;
      }

      .cls-35 {
        fill: #cb5ca7;
      }

      .cls-36 {
        fill: #ef7f28;
      }

      .cls-37 {
        fill: #1f8bd8;
      }

      .cls-38 {
        fill: #d86a77;
      }

      .cls-39 {
        fill: #fdfdfd;
      }

      .cls-40 {
        fill: #df715f;
      }

      .cls-41 {
        fill: #188dd7;
      }

      .cls-42 {
        fill: #ed7e2e;
      }

      .cls-43 {
        fill: #0692d5;
      }

      .cls-44 {
        fill: #557add;
      }

      .cls-45 {
        fill: #4d7ddd;
      }

      .cls-46 {
        fill: #d56782;
      }

      .cls-47 {
        fill: #2c87d9;
      }

      .cls-48 {
        fill: #6676df;
      }

      .cls-49 {
        fill: #6077df;
      }

      .cls-50 {
        fill: #118fd6;
      }

      .cls-51 {
        fill: #f38416;
      }

      .cls-52 {
        fill: #c758b7;
      }

      .cls-53 {
        fill: #7372e1;
      }

      .cls-54 {
        fill: #6d74e0;
      }

      .cls-55 {
        fill: #178dd7;
      }

      .cls-56 {
        fill: #f18120;
      }

      .cls-57 {
        fill: #2688d8;
      }

      .cls-58 {
        fill: #4f7ddc;
      }

      .cls-59 {
        fill: #7f6ee2;
      }

      .cls-60 {
        fill: #1c8bd7;
      }

      .cls-61 {
        fill: #208ad8;
      }

      .cls-62 {
        fill: #7670e1;
      }

      .cls-63 {
        fill: #3e81db;
      }

      .cls-64 {
        fill: #7173e1;
      }

      .cls-65 {
        fill: #da6b72;
      }

      .cls-66 {
        fill: #ec7c33;
      }

      .cls-67 {
        fill: #d16291;
      }

      .cls-68 {
        fill: #cd5ea1;
      }

      .cls-69 {
        fill: #f6870c;
      }

      .cls-70 {
        fill: #4b7ddc;
      }

      .cls-71 {
        fill: #5b78de;
      }

      .cls-72 {
        fill: #6078de;
      }

      .cls-73 {
        fill: #d3648a;
      }

      .cls-74 {
        fill: #d7687d;
      }

      .cls-75 {
        fill: #547bde;
      }

      .cls-76 {
        fill: #e27454;
      }
    </style>
  </defs>
  <path class="cls-8" d="M72.2,4.1v56.9h-1.5V4.1h1.5Z"/>
  <g>
    <path class="cls-39" d="M5.8,61.8h0V3.4q0-.1.1-.1h58.9s.1,0,.1.1v58.1h0q0,.1-.1.1l-3.3-3.3c-1.1-1.1-.7-.6-.9-.9-.4-.4-.9-.9-1.2-1.3-.9-.8-1.7-1.7-2.5-2.5l-.9-.9c-1.2-1.2-2.5-2.4-3.7-3.7l-.7-.7c-1.3-1.3-2.8-2.6-4.1-4.1l-.4-.4c-1.3-1.3-2.6-2.6-4-3.9l-2.5-2.5c-.7-.7-1.3-1.2-1.9-1.9-1-1-2-1.9-2.9-2.9,0,0-.2-.1-.2-.2h0c.2-.3.4-.4.6-.7.4-.4.9-.9,1.3-1.3.1-.2.3-.3.6-.4.4-.4.9-.9,1.3-1.2h0c.3-.4.6-.8.9-1,.2-.1.3-.3.6-.6l.6-.6c.4-.4.9-.9,1.3-1.2.2-.2.4-.4.6-.6l.8-.8c.3-.3.7-.7,1.1-1,.4-.4.9-.8,1.2-1.2.7-.7,1.3-1.2,1.9-1.9l1.1-1.1,2.5-2.5c.8-.8,1.5-1.5,2.3-2.3.8-.8,1.5-1.5,2.4-2.3.8-.8,1.5-1.5,2.3-2.3.8-.8,1.7-1.5,2.4-2.4.8-.7,1.4-1.4,2.2-2.1.4-.4.9-.9,1.3-1.3h0c0-.1-58.9-.1-58.9-.1,0,0-.1,0-.1.1v58.2h0v-.2Z"/>
    <path class="cls-59" d="M35.4,32.5c.9.8,1.5,1.7,2.4,2.4l2.3,2.3c.8.8,1.5,1.7,2.4,2.4.8.8,1.4,1.5,2.2,2.2l2.2,2.2,2.5,2.5,2.3,2.3,2.3,2.3c.8.7,1.4,1.4,2.1,2.1s1.8,1.8,2.6,2.5c.8.7,1.4,1.4,2.1,2.1l2.5,2.5,1.1,1.1h0c0,.1-3,.1-3,.1l-.8-.8c-1.4-1.4-3-2.9-4.4-4.4l-2.3-2.3-2.3-2.3-2.3-2.3c-.8-.8-1.5-1.5-2.4-2.3-.8-.8-1.5-1.5-2.3-2.2-.9-.8-1.7-1.7-2.4-2.4s-1.3-1.4-2.1-2.1c-.9-.9-1.8-1.8-2.6-2.5l-2.3-2.3-1.7-1.7h-.1c0-.1,0-.2.1-.3l.9-.9.6-.6h0l.3.2Z"/>
    <path class="cls-7" d="M33.8,34h.1c1.2,1.3,2.4,2.5,3.6,3.7l2.3,2.3,2.3,2.3,2.3,2.3,2.3,2.3,2.3,2.3c.8.8,1.5,1.5,2.4,2.3l2.3,2.3,2.3,2.3,2.3,2.3,2.3,2.3c.2.2.4.3.6.6s0,0,0,.1h-3.1c-.6-.6-1.1-1.2-1.8-1.8l-2.5-2.5-2.3-2.3c-.8-.8-1.5-1.7-2.4-2.4l-2.3-2.3c-.8-.8-1.5-1.5-2.4-2.3l-2.3-2.3c-.8-.8-1.5-1.5-2.4-2.3l-2.3-2.3c-.8-.8-1.5-1.5-2.4-2.3-.8-.8-1.5-1.5-2.3-2.2-.3-.3-.7-.7-1-1s-.1,0-.1-.2v-.2c.4-.3.9-.8,1.2-1.1.1,0,.1-.2.3-.2l.7.3Z"/>
    <path class="cls-48" d="M51.2,61.8h-3l-1-1h-.1c-.6-.7-1.1-1.2-1.7-1.8l-2.8-2.8-2.3-2.3c-.8-.8-1.5-1.7-2.4-2.4l-2.3-2.3c-.8-.8-1.5-1.5-2.3-2.3-.8-.8-1.5-1.5-2.3-2.3-.8-.8-1.5-1.5-2.3-2.3-.6-.4-1-1-1.4-1.4h-.1v-.2c.1-.1.2-.2.4-.4l.8-.8s.1-.1.2-.1h.1c.7.8,1.2,1.4,1.9,2l2.5,2.5,2.3,2.3,2.3,2.3,2.3,2.3c.8.8,1.5,1.5,2.4,2.3l2.3,2.3c.8.8,1.5,1.5,2.4,2.3l2.3,2.3c.6.6,1.1,1.1,1.7,1.5,0,0,.1.1.1.2h-.1Z"/>
    <path class="cls-54" d="M51.2,61.8s-.1-.2-.2-.2l-1.2-1.2c-.9-.8-1.7-1.7-2.4-2.4l-2.3-2.3c-.8-.8-1.5-1.5-2.4-2.3l-2.3-2.3c-.8-.8-1.5-1.5-2.4-2.3l-2.3-2.3c-.8-.8-1.5-1.5-2.3-2.3-.8-.8-1.5-1.5-2.4-2.3-.8-.8-1.5-1.5-2.3-2.3h-.1v-.2l.6-.6c.1-.1.3-.2.4-.4h.2c.7.8,1.4,1.4,2.1,2.1l.9.9c.9.8,1.7,1.7,2.5,2.5.8.8,1.5,1.5,2.3,2.2.9.8,1.7,1.7,2.4,2.4s1.5,1.5,2.3,2.2c.9.8,1.7,1.7,2.4,2.4.8.7,1.4,1.4,2.2,2.1.9.8,1.7,1.7,2.5,2.5.8.7,1.4,1.4,2.1,2.1l2,2c.7.7.1,0,0,.2h-2.4.2Z"/>
    <path class="cls-62" d="M32.3,35.5h.1c1.1,1.1,2.1,2.2,3.1,3.2l2.3,2.3c.8.8,1.5,1.5,2.4,2.3l2.3,2.3c.8.8,1.5,1.5,2.4,2.3l2.3,2.3,2.3,2.3,2.3,2.3,2.3,2.3,2.3,2.3,2,2,.2.2h-2c-.1,0-.2-.2-.3-.3l-.2-.2c-1.3-1.4-2.8-2.8-4.2-4.2s-1.5-1.5-2.4-2.3l-2.3-2.3-2.3-2.3c-.8-.8-1.5-1.5-2.4-2.3l-2.3-2.3c-.8-.8-1.5-1.5-2.4-2.3l-2.3-2.3c-.8-.8-1.5-1.5-2.3-2.3-.7-.6-1.2-1.2-1.8-1.8h-.1v-.2l.9-.9h.1Z"/>
    <path class="cls-44" d="M43.7,61.8h-2.6c-.3-.3-.6-.7-.9-.9h-.1c-.7-.8-1.3-1.4-2-2.1-.9-.8-1.7-1.7-2.5-2.4-.8-.8-1.5-1.5-2.3-2.2-.9-.8-1.7-1.7-2.4-2.4-.8-.7-1.4-1.4-2.2-2.2-.9-.8-1.7-1.7-2.5-2.4-.8-.8-1.5-1.5-2.3-2.3-.1-.1-.3-.2-.4-.3h0c0-.2.1-.3.2-.4.1,0,.2-.2.3-.3l.6-.6h.2l.2.2c1.1,1.1,2.2,2.2,3.3,3.2.8.8,1.5,1.5,2.3,2.3.8.8,1.5,1.5,2.4,2.3.8.8,1.5,1.5,2.3,2.3l2.3,2.3,2.3,2.3,2.3,2.3c.4.4.9.8,1.2,1.2,0,0,.1,0,0,.2h.3Z"/>
    <path class="cls-72" d="M27,40.7h.1c.4.4.8.9,1.2,1.2.9.8,1.5,1.7,2.4,2.4.7.6,1.2,1.2,1.9,1.9,1,.9,1.9,1.9,2.9,2.8l2.3,2.3c.8.8,1.5,1.5,2.4,2.3l2.3,2.3c.8.8,1.5,1.5,2.4,2.3l2.3,2.3,1,1h0c0,.1-2.2.1-2.2.1h-.1c-1.1-1.2-2.2-2.3-3.3-3.3l-2.3-2.3c-.8-.8-1.5-1.7-2.4-2.4-.8-.8-1.5-1.5-2.3-2.2-.8-.8-1.5-1.5-2.4-2.3-.8-.8-1.5-1.5-2.3-2.3-.8-.8-1.5-1.7-2.4-2.4l-2.2-2.2-.2-.2s-.1,0-.1-.2c0,0,.1-.2.2-.2,0,0,.1-.1.2-.2l.6-.6h.1,0Z"/>
    <path class="cls-71" d="M25.9,41.8c0,.1.2.2.3.3l4.4,4.4,2.4,2.4c.8.8,1.5,1.5,2.3,2.3l2.3,2.3,2.3,2.3,2.3,2.3,2.3,2.3,1.1,1.1h0c0,.1-2.3.1-2.3.1l-1.3-1.3h0l-4.4-4.4c-.8-.8-1.5-1.7-2.4-2.4-.7-.7-1.3-1.3-2-2s-1.8-1.8-2.8-2.8c-.8-.8-1.5-1.5-2.3-2.3-.8-.8-1.5-1.5-2.3-2.3-.4-.4-.9-.9-1.3-1.3h0v-.2l.4-.4c.1-.1.3-.3.4-.4h.4Z"/>
    <path class="cls-53" d="M31.3,36.6h0c1.3,1.3,2.6,2.6,4,3.9l2.3,2.3c.8.8,1.5,1.5,2.4,2.3l2.3,2.3c.8.8,1.5,1.5,2.4,2.3l2.3,2.3,2.3,2.3c.8.8,1.5,1.5,2.4,2.3l2.3,2.3,2.3,2.3.3.3h-1.7l-.2-.2c-1-.9-1.9-1.9-2.9-2.9l-2.3-2.3c-.8-.8-1.5-1.5-2.4-2.3l-2.3-2.3c-.8-.8-1.5-1.7-2.4-2.4-.8-.8-1.5-1.5-2.3-2.2-.9-.8-1.7-1.7-2.4-2.4s-1.3-1.3-2.1-2c-.9-.9-1.8-1.8-2.6-2.5-.8-.8-1.5-1.5-2.3-2.3l-.6-.6c0-.1.2-.2.2-.3h.1c.1-.1.2-.3.3-.4h.1l.3.2Z"/>
    <path class="cls-30" d="M37.5,61.8h-2.3l-.8-.8c-1.2-1.2-2.3-2.3-3.5-3.5-.8-.8-1.5-1.5-2.3-2.3-.8-.8-1.5-1.5-2.3-2.3-.8-.8-1.5-1.5-2.3-2.3-.8-.8-1.5-1.5-2.3-2.3l-.9-.9h-.1c0-.2.2-.3.3-.4.2-.2.4-.6.8-.8h.1s.1,0,.2.1l4.2,4.2c.8.8,1.5,1.7,2.4,2.4.8.8,1.5,1.5,2.3,2.2.9.8,1.7,1.7,2.4,2.4.7.7,1.4,1.4,2.1,2.1.7.7,1.3,1.3,2.1,2s.1.1.1.2h-.2Z"/>
    <path class="cls-64" d="M30.4,37.3c.2,0,.3.3.6.4,1.5,1.4,3,3,4.5,4.4.8.8,1.5,1.5,2.4,2.3.8.7,1.4,1.4,2.1,2.1s1.7,1.8,2.5,2.5c.8.7,1.4,1.4,2.1,2.1s1.8,1.8,2.6,2.5c.7.7,1.3,1.4,2.1,2.1.9.9,1.8,1.8,2.6,2.5.7.7,1.3,1.3,2.1,2,.3.3.7.7,1.1,1v.2c.1,0-1.3,0-1.3,0h0c-.6-.7-1-1.2-1.5-1.7-.8-.7-1.4-1.4-2.1-2.1l-2.5-2.5-2.1-2.1-2.6-2.6-2-2-2.6-2.6-2.3-2.3c-.8-.8-1.5-1.5-2.3-2.3-.8-.8-1.5-1.5-2.3-2.3l-1.1-1.1h0l.6-.6h-.4Z"/>
    <path class="cls-15" d="M33.1,61.8h-2.4s-.1-.1-.2-.2c-.6-.6-1.2-1.2-1.8-1.8s-1.5-1.7-2.4-2.4c-.8-.7-1.4-1.4-2.2-2.2-.9-.8-1.7-1.7-2.5-2.5s-1.5-1.5-2.3-2.3c-.3-.3-.7-.6-.9-.9h-.1c0-.2.2-.3.2-.4.2-.3.6-.6.9-.8h.2l.8.8,3.3,3.3c.8.8,1.5,1.5,2.3,2.3.8.8,1.5,1.5,2.3,2.3s1.5,1.5,2.3,2.3c.8.8,1.5,1.5,2.3,2.3,0,0,.1,0,0,.2h.2Z"/>
    <path class="cls-58" d="M23.4,44.3c.1.1.3.3.4.4.7.7,1.2,1.3,1.9,1.9.9.9,1.7,1.8,2.6,2.5.8.8,1.5,1.5,2.3,2.3.8.8,1.5,1.7,2.4,2.4.8.8,1.5,1.5,2.3,2.3.8.8,1.5,1.5,2.4,2.3l2.3,2.3.9.9h0c0,.1-1.9.1-1.9.1-1.2-1.3-2.4-2.5-3.6-3.7-.8-.8-1.5-1.5-2.3-2.3-.8-.8-1.5-1.7-2.4-2.4-.8-.8-1.5-1.5-2.3-2.3-.8-.8-1.5-1.5-2.4-2.3-.8-.8-1.5-1.5-2.3-2.2-.4-.4-.9-.9-1.2-1.2,0,0-.1,0-.1-.2s.2-.2.2-.3c.1-.1.3-.3.4-.4h.3Z"/>
    <path class="cls-70" d="M22.6,45.2h.1c1.1,1.2,2.2,2.3,3.3,3.4s1.5,1.5,2.3,2.3c.8.8,1.5,1.5,2.3,2.3.8.8,1.5,1.5,2.3,2.3.8.8,1.5,1.5,2.3,2.3l2.3,2.3c.6.4,1,1,1.5,1.4h0c0,.1-1.9.1-1.9.1,0,0-.1-.2-.2-.2l-1.5-1.5c-.8-.8-1.5-1.7-2.4-2.4-.7-.7-1.3-1.3-2-1.9-1-.9-1.9-1.9-2.8-2.8s-1.5-1.5-2.3-2.3c-.8-.8-1.5-1.5-2.4-2.3-.8-.7-1.4-1.4-2.2-2.1,0,0-.1,0-.1-.1,0,0,0-.1.1-.2.2-.2.4-.4.8-.8h.4Z"/>
    <path class="cls-63" d="M33.1,61.8h0c-.7-.8-1.4-1.5-2.1-2.2-.8-.8-1.5-1.5-2.3-2.3-.8-.8-1.5-1.5-2.3-2.3-.8-.8-1.5-1.5-2.3-2.3-.8-.8-1.5-1.5-2.3-2.3-.7-.7-1.3-1.3-2-1.9h-.1c0-.2.2-.3.2-.4.2-.2.4-.4.7-.7h.1c.4.4,1,1,1.4,1.4,1.3,1.3,2.6,2.6,4,4,.8.8,1.5,1.5,2.3,2.3.8.8,1.5,1.5,2.3,2.3.8.8,1.5,1.5,2.3,2.3.7.7,1.3,1.3,2.1,2h.1c0,.1-2.1.1-2.1.1Z"/>
    <path class="cls-20" d="M18.2,49.4h0c.4.4,1,1,1.4,1.4,1.3,1.3,2.6,2.6,4,3.9.8.8,1.5,1.5,2.3,2.3.8.8,1.5,1.5,2.3,2.3.8.7,1.4,1.4,2.1,2.1v.2c.1,0-2,0-2,0-.1,0-.2-.2-.4-.3-.6-.6-1-1-1.4-1.4-1-.9-1.9-1.9-2.8-2.8s-1.5-1.5-2.3-2.3c-.8-.8-1.5-1.5-2.3-2.3-.7-.6-1.2-1.2-1.9-1.9,0,0-.1,0-.1-.2h0c.3-.4.6-.7.9-1h.2Z"/>
    <path class="cls-57" d="M26.2,61.8h-2c-.2-.2-.4-.4-.7-.7-.7-.7-1.2-1.3-1.9-1.9-.9-.8-1.7-1.7-2.4-2.4s-1.5-1.5-2.3-2.3c-.6-.6-1.1-1.1-1.8-1.7h-.1v-.2c.2-.2.3-.3.6-.6.1,0,.1-.2.3-.2h.1c1,.9,1.9,1.9,2.8,2.8s1.5,1.7,2.4,2.4c.8.8,1.5,1.5,2.3,2.2.9.8,1.7,1.7,2.4,2.4,0,0,.1.1.2.2h0c0,.1,0-.1,0-.1Z"/>
    <path class="cls-16" d="M14,61.8H5.7c.4-.6.9-1.1,1.4-1.5.7-.7,1.3-1.3,2-2h0c.2-.2.4-.3.7-.6h.1c.2.2.3.3.6.6l3.3,3.3s.1,0,.1.2h.2Z"/>
    <path class="cls-55" d="M21.3,61.8h-2c-.7-.6-1.2-1.2-1.8-1.8-1-1-2.1-2.1-3.1-3.1-.6-.6-1.2-1.2-1.8-1.8,0,0-.1,0-.1-.2,0,0,0-.1.1-.2,0,0,.2-.2.2-.3.1-.1.3-.2.4-.4h.2c1,1,2,1.9,2.9,2.9.9.8,1.7,1.7,2.4,2.4.8.7,1.4,1.4,2.2,2.2,0,0,.1,0,0,.2h.2Z"/>
    <path class="cls-61" d="M15,52.5h.1c.4.4.9.9,1.3,1.3.9.9,1.8,1.8,2.6,2.5.8.8,1.5,1.5,2.3,2.3.8.8,1.5,1.5,2.3,2.3l.6.6h0c0,.1-1.4.1-1.4.1h-.1c-1.1-1.1-2.3-2.3-3.4-3.4h0c-.9-.8-1.7-1.7-2.4-2.4s-1.5-1.7-2.4-2.4h0c.2-.2.4-.4.7-.7h0v-.2Z"/>
    <path class="cls-21" d="M9.4,58.1h0c-.7.7-1.2,1.2-1.9,1.9-.6.6-1.1,1.1-1.7,1.5h0c0,.1,0-7,0-7h.2c.4.4.9.9,1.3,1.3.7.7,1.3,1.3,2,2h0v.3Z"/>
    <path class="cls-60" d="M14.4,53.3h.1c1.5,1.4,3,3,4.5,4.4.8.8,1.5,1.5,2.3,2.3.6.4,1,1,1.4,1.4h.1c0,.1-1.5.1-1.5.1h0c-.7-.8-1.3-1.4-2-2.1s-1.5-1.5-2.3-2.3c-.8-.8-1.5-1.5-2.3-2.3-.3-.2-.6-.6-.9-.9h0v-.2c.2-.2.4-.4.7-.7h0v.2Z"/>
    <path class="cls-13" d="M17.2,50.4h0c.6.7,1.1,1.2,1.7,1.8s1.5,1.5,2.3,2.3c.8.8,1.5,1.5,2.3,2.3.8.8,1.5,1.5,2.4,2.3.8.8,1.5,1.5,2.3,2.3,0,0,.2,0,.2.2h-1.2c-.8-.8-1.5-1.5-2.3-2.3-.3-.3-.7-.7-1-1-.9-.8-1.7-1.7-2.4-2.4s-1.5-1.5-2.2-2.2c-.9-.8-1.7-1.7-2.4-2.4,0,0-.1,0-.2-.2h0c.1-.1.2-.3.4-.4h.1v-.2Z"/>
    <path class="cls-17" d="M12.6,55.1h0l1.7,1.7c.8.8,1.5,1.5,2.3,2.3.8.8,1.5,1.5,2.4,2.3l.3.3h0c0,.1-2,.1-2,.1-.2-.2-.4-.6-.8-.8h-.1c-.7-.8-1.3-1.4-2-2.1-.9-.8-1.7-1.7-2.4-2.4-.1-.1-.3-.3-.4-.4h0v-.2c.2-.2.6-.4.8-.8h.2Z"/>
    <path class="cls-29" d="M16.6,51s.1,0,.2.2c1.4,1.4,2.9,2.9,4.4,4.3.9.8,1.7,1.7,2.5,2.4.8.8,1.5,1.5,2.3,2.3.4.4.9.9,1.3,1.3h.1c0,.1-1.1.1-1.1.1h0c-.8-.9-1.5-1.7-2.3-2.4-.8-.8-1.5-1.5-2.4-2.3-.8-.8-1.5-1.5-2.3-2.2-.9-.8-1.7-1.7-2.4-2.4-.2-.2-.6-.4-.8-.8h0c.1-.1.2-.2.4-.4h0Z"/>
    <path class="cls-10" d="M11.6,55.9c.1.1.2.2.4.4.8.8,1.5,1.5,2.3,2.2.9.8,1.5,1.7,2.4,2.4.2.2.4.4.7.7h0c0,.1-1.7.1-1.7.1-.4-.4-.9-1-1.4-1.4h-.1c-.7-.8-1.3-1.4-2-2.1-.4-.4-1-.9-1.4-1.3h-.1c.2-.3.4-.6.7-.8h.1v-.2Z"/>
    <path class="cls-43" d="M10.8,56.7h.1c1.1,1.1,2.3,2.3,3.4,3.4.4.4.9.9,1.3,1.3,0,0,.1,0,0,.2h-1.8c-.7-.8-1.2-1.3-1.9-2-.7-.7-1.4-1.4-2.1-2.1h0s0-.1.1-.2c0,0,.1-.1.2-.2.1,0,.2-.2.3-.3h.2Z"/>
    <path class="cls-69" d="M35.4,3.3h29.5-.1l-3.3,3.3c-.8.8-1.5,1.5-2.3,2.3-.8.8-1.5,1.5-2.4,2.3-.8.8-1.5,1.5-2.3,2.3-.8.8-1.5,1.5-2.3,2.3-.8.8-1.5,1.5-2.4,2.3-.8.8-1.5,1.5-2.3,2.3l-1.1,1.1h0c-1.1-1.1-2.3-2.2-3.4-3.4-.8-.8-1.5-1.5-2.4-2.3-.8-.8-1.5-1.5-2.3-2.3-.8-.8-1.5-1.5-2.3-2.3-.8-.8-1.5-1.5-2.3-2.3-.6-.4-1-1-1.5-1.5,0,0-.1-.1-.1-.2,0,0,0-.1.1-.2.3-.2.6-.6.8-.9.4-.4.9-.9,1.3-1.3.4-.4.9-1,1.3-1.4h.1c0-.1-.1,0-.1,0Z"/>
    <path class="cls-16" d="M5.8,34.1V6.6h.2c.4.4.8.8,1.2,1.2.9.8,1.7,1.7,2.4,2.4l2.3,2.3c.8.8,1.5,1.5,2.4,2.4.8.8,1.5,1.5,2.2,2.2.9.8,1.7,1.7,2.4,2.4,0,0,.2.1.2.2h0v.2c-.4.4-.9.9-1.2,1.3-.3.3-.7.8-1.1,1.1,0,0-.2.2-.3.3-.6.6-1,1.1-1.5,1.7-.2.2-.4.4-.6.7-.3.3-.7.8-1,1.1-.3.3-.7.7-1,1.1,0,0-.1.1-.1.2-.3.3-.7.7-1,1s-.9.9-1.2,1.3c0,.1-.2.2-.3.3-.2.3-.6.6-.8.9-.3.3-.7.8-1.1,1.1-.1.1-.3.3-.4.4-.2.2-.3.3-.6.6-.3.3-.7.7-1,1.1h-.2Z"/>
    <path class="cls-31" d="M31.6,7.3h0c.4.6.9,1,1.3,1.4.7.7,1.3,1.3,2,2,.9.9,1.8,1.8,2.6,2.6.8.8,1.5,1.5,2.2,2.2.9.8,1.7,1.7,2.4,2.4s1.5,1.5,2.3,2.3c.4.4.9.9,1.4,1.3h0c-.4.4-.9.9-1.3,1.3s-.7.6-.9.9h-.1c-.7-.7-1.3-1.3-2-2-1.2-1.2-2.5-2.5-3.7-3.7-.8-.8-1.5-1.5-2.3-2.3l-2.3-2.3c-.8-.8-1.5-1.5-2.4-2.3-.4-.4-.9-.9-1.3-1.3-.1-.1-.2-.2-.1-.4h0c.1-.2.2-.4.4-.6.2-.2.4-.4.7-.7.3-.3.7-.7,1-1h.1Z"/>
    <path class="cls-56" d="M41.3,26.7l-1.1,1.1c-.2.2-.4.4-.7.7,0,0-.1.1-.2.2h0c-1.1-1.1-2.3-2.3-3.4-3.4s-1.5-1.5-2.4-2.3l-2.3-2.3c-.8-.8-1.5-1.5-2.4-2.3-.7-.7-1.3-1.3-2.1-2-.6-.6-1.1-1-1.5-1.5,0,0-.1,0-.1-.1h0s.1,0,0-.1c0,0,0-.1.1-.1.1-.2.3-.3.6-.6s.4-.4.7-.7.3-.3.4-.4h.1c.3.4.8.9,1.1,1.2l2.6,2.6,2.3,2.3c.8.8,1.5,1.5,2.4,2.3.8.7,1.4,1.4,2.2,2.2.9.8,1.7,1.7,2.4,2.4l1.1,1.1h0c0,.1.2-.3.2-.3Z"/>
    <path class="cls-36" d="M24.9,14.3l1.3,1.3h.1c.7.8,1.3,1.4,2,2.1.9.8,1.7,1.7,2.4,2.4l2.3,2.3c.8.8,1.5,1.7,2.4,2.3.8.8,1.5,1.5,2.3,2.2.6.4,1,1,1.4,1.4h0c-.6.6-1,1-1.5,1.5-.1.1-.2.2-.3.3h0c-1.1-1.1-2.3-2.2-3.4-3.4l-2.9-2.9c-.8-.8-1.5-1.5-2.3-2.2-.8-.8-1.5-1.5-2.4-2.3-.8-.8-1.5-1.5-2.3-2.2l-1-1h0c0-.2.2-.3.3-.6l.8-.8c.2-.2.3-.4.6-.6h.2Z"/>
    <path class="cls-51" d="M29.4,9.5h0c-.1,0,0,.1,0,.2.4.4.8.8,1.2,1.2.9.8,1.7,1.7,2.4,2.4.8.7,1.4,1.4,2.2,2.1.9.8,1.7,1.7,2.5,2.4.8.8,1.5,1.5,2.3,2.3.8.8,1.5,1.7,2.4,2.4.4.4.9.9,1.3,1.2h.1c-.4.4-.9,1-1.4,1.3h-.1c-.1-.2-.2-.3-.3-.6-1.3-1.3-2.8-2.6-4.1-4s-1.5-1.5-2.3-2.3-1.5-1.5-2.3-2.3l-2.3-2.3c-.8-.8-1.5-1.5-2.3-2.3s-.3-.3-.4-.4h0c0-.3.2-.4.3-.6.2-.2.4-.4.7-.7s.2-.2.3-.3h-.2Z"/>
    <path class="cls-42" d="M23.1,16.2s0,.1.1.1c.4.4,1,.9,1.4,1.4l3.9,3.9,2.3,2.3,2.3,2.3,2.3,2.3c.7.6,1.2,1.2,1.9,1.9l-1.3,1.3h-.1c-.4-.4-.9-.9-1.3-1.3l-3.6-3.6-2.3-2.3-2.3-2.3-2.3-2.3c-.7-.7-1.3-1.3-2.1-2,0,0-.1,0-.1-.2.1-.2.3-.3.4-.6l.6-.6s.1-.2.3-.2h0Z"/>
    <path class="cls-26" d="M28,11c.2.2.4.4.6.6.7.7,1.3,1.3,2,2,.9.8,1.7,1.7,2.4,2.4s1.5,1.5,2.3,2.3c.8.8,1.5,1.5,2.3,2.3.8.8,1.5,1.5,2.4,2.3.8.8,1.5,1.5,2.3,2.3h0c-.3.6-.8.9-1.1,1.2h-.1c-.7-.6-1.3-1.1-2-1.8-.3-.4-.8-.8-1.1-1.1l-2.5-2.5-2.3-2.3c-.8-.8-1.5-1.5-2.4-2.3l-2.3-2.3-1.7-1.7h-.1v-.2c.1-.1.3-.3.4-.6.2-.2.4-.4.6-.6h.1c0-.1.2-.1.2-.1Z"/>
    <path class="cls-66" d="M21.7,17.5h0c.7.8,1.2,1.3,1.9,2s1.5,1.5,2.4,2.3l2.3,2.3,2.3,2.3,2.3,2.3,2.3,2.3c.2.2.4.4.7.7-.2.2-.3.4-.6.6h0l-.6.6h-.1l-3.6-3.6c-.8-.8-1.5-1.7-2.4-2.3-.7-.7-1.3-1.4-2.1-2.1-.9-.9-1.8-1.8-2.6-2.5l-2.3-2.3c-.3-.2-.6-.6-.9-.9-.1,0-.2-.2-.2-.3,0,0,0-.1.1-.2s.3-.3.4-.6.3-.3.6-.4h.1Z"/>
    <path class="cls-73" d="M17.2,50.4h-.1c-.8-.8-1.5-1.5-2.3-2.3-.9-.8-1.7-1.7-2.4-2.4s-1.5-1.5-2.3-2.3c-.8-.8-1.5-1.7-2.4-2.4-.6-.6-1-1.1-1.5-1.5h0v-2.9h.2c.4.4.8.9,1.2,1.2.9.8,1.7,1.7,2.4,2.4s1.5,1.5,2.3,2.3c.8.8,1.5,1.5,2.4,2.3.8.8,1.5,1.5,2.3,2.3.7.6,1.2,1.2,1.8,1.8h0s-.2.2-.2.3c-.3.3-.7.7-1,1.1h-.3Z"/>
    <path class="cls-46" d="M18.4,49.1h-.1c-1-.9-1.9-1.9-2.9-2.8-1.1-1.1-2.3-2.2-3.4-3.4-.8-.8-1.5-1.5-2.3-2.3-.8-.8-1.5-1.5-2.3-2.3-.6-.6-1-1.1-1.5-1.5h-.1v-2.4h.1c1.2,1.3,2.4,2.5,3.6,3.7.8.8,1.5,1.5,2.3,2.3.8.8,1.5,1.5,2.4,2.3.8.7,1.4,1.4,2.2,2.2.9.8,1.7,1.7,2.5,2.5.2.2.4.3.6.6h0c0,.1-.2.3-.2.4-.3.3-.7.6-1,.9h0v-.2Z"/>
    <path class="cls-14" d="M31.6,7.3h0c-.6.6-1,1.1-1.5,1.7h-.1c-.8-.9-1.7-1.7-2.4-2.4-.3-.3-.8-.8-1.1-1.1-.7-.6-1.2-1.2-1.9-1.9,0,0-.1,0-.1-.2h11c-.7.7-1.2,1.3-1.9,2l-1.7,1.7s-.1.1-.2.2h-.1Z"/>
    <path class="cls-67" d="M5.8,39.4h.1c.9.9,1.8,1.8,2.6,2.6.2.2.4.4.7.7.9.9,1.8,1.8,2.8,2.6.8.8,1.5,1.5,2.3,2.3.8.8,1.5,1.5,2.3,2.3.1.1.2.3.4.4-.1.2-.3.3-.4.4-.2.2-.3.3-.6.6,0,0-.2.2-.3.2h0c-1-1-2.1-2-3.1-3.1-.9-.9-1.8-1.9-2.8-2.8-.8-.8-1.5-1.5-2.3-2.3l-1.7-1.7h-.1v-2.8.3Z"/>
    <path class="cls-28" d="M5.8,42h.1c1,1,1.9,1.9,2.9,2.9.2.2.6.6.8.8.9.8,1.7,1.7,2.4,2.4s1.5,1.5,2.3,2.3c.4.4,1,1,1.4,1.4-.2.2-.4.4-.7.7s-.3.3-.4.4c0,0-.2.2-.3.2h0c-1.1-1.1-2.3-2.3-3.4-3.4s-2.2-2.1-3.2-3.2c-.6-.6-1.1-1.1-1.7-1.5h0v-3h-.2Z"/>
    <path class="cls-68" d="M5.8,44.8h.1c1,1,1.9,1.9,2.9,2.9.2.2.4.4.7.7.9.8,1.7,1.7,2.5,2.5.8.8,1.4,1.4,2.2,2.2h0c-.2.2-.4.4-.7.7h-.1c-.2.3-.3.4-.6.7h-.1c-1-1-2.1-2-3.1-3.1-.8-.8-1.5-1.5-2.4-2.3-.6-.6-1-1.1-1.5-1.5h0v-2.6h.1Z"/>
    <path class="cls-32" d="M24.2,15c-.2.3-.6.6-.8.9h0l-1.7-1.7c-.8-.8-1.5-1.5-2.4-2.4-.8-.8-1.5-1.5-2.3-2.3-.8-.8-1.5-1.5-2.4-2.3-.7-.7-1.4-1.4-2.1-2.1-.6-.4-1-1-1.5-1.4,0,0-.1,0,0-.2h1.7s.1,0,.2.2l1.5,1.5c.2.2.4.4.7.7l.7.7.7.7c.6.6,1.2,1.1,1.8,1.8.7.7,1.4,1.3,2.1,2.1.3.3.7.8,1.1,1.1.9.9,1.8,1.7,2.5,2.5.1.1.3.2.4.4h0c0,.1-.1-.1-.1-.1Z"/>
    <path class="cls-1" d="M24.2,15l-.6-.6c-.7-.7-1.3-1.3-2-2-.4-.4-.9-.9-1.2-1.2-.3-.3-.7-.7-1-1-.6-.4-1-1-1.5-1.5-.3-.3-.7-.7-1-1-.3-.2-.6-.6-.9-.9l-.7-.7c-.2-.2-.4-.4-.7-.6l-2.2-2.2h0c0-.1,1.7-.1,1.7-.1.1.2.3.3.4.4,1.4,1.4,2.9,2.9,4.3,4.2.9.9,1.7,1.7,2.5,2.5.8.8,1.5,1.5,2.3,2.3.4.4.9.8,1.2,1.2,0,0,.1,0,.1.1h0l-.7.7h0l-.2.2Z"/>
    <path class="cls-35" d="M5.8,47.4h.1c.9.9,1.8,1.8,2.6,2.6,0,0,.2.2.3.3,1,1,2.1,2.1,3.1,3.1s.7.8,1.1,1.1c-.1.2-.3.3-.4.4-.2.2-.4.4-.8.7h-.1c-1.3-1.2-2.6-2.5-4-3.9-.6-.6-1.1-1.1-1.8-1.8h-.1v-2.6h-.1Z"/>
    <path class="cls-34" d="M10.8,3.3h0c.3.4.7.9,1.1,1.2.8.8,1.5,1.5,2.3,2.3s1.5,1.5,2.3,2.3,1.5,1.5,2.3,2.3c.8.8,1.5,1.5,2.3,2.3l1.7,1.7c.1.1.2.2.3.4l-.3.3-.3.3h-.1l-2.3-2.3c-.3-.3-.7-.7-1-1-.9-.8-1.7-1.7-2.4-2.4-.8-.7-1.4-1.4-2.2-2.2-.9-.8-1.7-1.7-2.4-2.4s-1.5-1.5-2.3-2.3l-.3-.3h0c0-.1,1.3-.1,1.3-.1h.1Z"/>
    <path class="cls-47" d="M9.5,3.3s0,.1.1.2l1.7,1.7,3,3,2.3,2.3c.8.8,1.5,1.5,2.4,2.3.8.8,1.5,1.5,2.3,2.3l1.3,1.3h0c-.2.2-.3.4-.6.6h0c-1-.9-1.9-1.9-2.9-2.8-.8-.8-1.5-1.5-2.4-2.3-.8-.8-1.5-1.5-2.3-2.3l-2.3-2.3c-.8-.8-1.5-1.5-2.3-2.3-.4-.4-1-1-1.4-1.4,0,0-.1,0,0-.2h1.2-.1Z"/>
    <path class="cls-45" d="M24.9,14.2c-.4-.4-.8-.9-1.2-1.2h0c-.7-.7-1.3-1.3-2.1-2.1-.8-.8-1.5-1.7-2.4-2.4-.8-.7-1.4-1.4-2.2-2.2-.9-.8-1.7-1.7-2.5-2.5-.1,0-.2-.2-.3-.3h0c0-.1,1.4-.1,1.4-.1h.1c1.1,1.2,2.3,2.4,3.4,3.5.8.8,1.5,1.5,2.2,2.2.8.8,1.5,1.5,2.4,2.4.7.6,1.2,1.2,1.9,1.8,0,0,.1,0,0,.2l-.7.7h0Z"/>
    <path class="cls-19" d="M28,11h0c-.3-.3-.6-.6-.9-.9-1.1-1-2.1-2.1-3.2-3.2-.8-.8-1.4-1.4-2.2-2.2-.4-.4-.9-.8-1.2-1.2,0,0-.1,0,0-.2h2.1c.1.1.3.2.4.4l3.2,3.2c.8.8,1.5,1.5,2.3,2.3.2.2.4.3.6.6h0c-.2.4-.6.8-.9,1.1h-.1c0,.1-.1.1-.1.1Z"/>
    <path class="cls-12" d="M8.3,3.3h0c.4.6.8,1,1.2,1.3.8.8,1.5,1.5,2.4,2.3.8.8,1.5,1.5,2.3,2.3l2.3,2.3c.8.8,1.5,1.5,2.3,2.3l2.3,2.3.7.7c.2.2,0,0,0,.1l-.4.4h0l-.3-.3-.6-.6c-1.3-1.3-2.5-2.5-3.9-3.9l-2.3-2.3-2.3-2.3-2.4-2.4c-.8-.8-1.5-1.5-2.4-2.3,0,0-.1,0-.1-.2h1.1v.2Z"/>
    <path class="cls-25" d="M5.8,50h.1c.9.9,1.8,1.8,2.6,2.6.3.3.7.7,1,1,.8.7,1.4,1.4,2.1,2.1h0c-.3.2-.6.6-.9.9-.1.1-.3.3-.4.4h-.1c-.7-.6-1.2-1.2-1.9-1.9-.8-.9-1.7-1.7-2.4-2.4h-.1v-2.9h0Z"/>
    <path class="cls-41" d="M21.2,18.1c-.1.2-.3.3-.4.6-.4-.4-.9-1-1.4-1.4-.9-.8-1.7-1.7-2.5-2.4-.8-.8-1.5-1.5-2.3-2.3l-2.3-2.3-2.3-2.3c-.8-.8-1.5-1.5-2.4-2.3-.6-.6-1.1-1.1-1.7-1.5h0v-.6c0-.1.2,0,.3,0h.2c1,1,2.1,2.1,3.1,3.1l2.4,2.4c.8.8,1.5,1.5,2.3,2.3l2.3,2.3c.8.8,1.5,1.5,2.3,2.3.8.7,1.4,1.4,2.1,2.1,0,0,.1,0,0,.2h.3Z"/>
    <path class="cls-37" d="M21.2,18.1h0c-.7-.8-1.2-1.3-1.9-2s-1.5-1.5-2.4-2.3c-.8-.8-1.5-1.5-2.3-2.3l-2.3-2.3-2.3-2.3c-.8-.8-1.5-1.5-2.3-2.3l-1-1h0c0-.1.9-.1.9-.1h0c.8.9,1.4,1.5,2.2,2.3s1.5,1.7,2.4,2.4c.7.7,1.3,1.3,2,1.9l2.8,2.8c.8.7,1.4,1.4,2.2,2.2.9.8,1.7,1.7,2.5,2.5s.2.2.4.3c-.1.2-.3.3-.6.6h0l-.3-.3Z"/>
    <path class="cls-75" d="M25.6,13.5h0c-.6-.7-1.1-1.2-1.7-1.8-.8-.8-1.5-1.5-2.3-2.3s-1.5-1.5-2.3-2.3c-.8-.8-1.5-1.5-2.3-2.3-.4-.4-.9-.9-1.3-1.3h0c0-.1,1.2-.1,1.2-.1.1,0,.2.2.4.3.7.7,1.2,1.2,1.8,1.8.9.8,1.7,1.7,2.5,2.5.8.8,1.5,1.5,2.3,2.3s1.7,1.5,2.4,2.4h.1v.2l-.6.7h-.3Z"/>
    <path class="cls-27" d="M5.8,6v-.8h.2c.4.4.9.9,1.2,1.2.9.8,1.7,1.7,2.4,2.4s1.5,1.5,2.3,2.3c.8.8,1.5,1.5,2.4,2.3.8.7,1.4,1.4,2.2,2.2.9.8,1.7,1.7,2.4,2.4l1,1s.1,0,.1.2-.2.3-.4.4h-.1l-2.6-2.6c-.8-.8-1.7-1.7-2.4-2.4-.8-.8-1.5-1.5-2.3-2.3-.8-.8-1.5-1.5-2.4-2.3-.8-.8-1.5-1.5-2.3-2.3l-1.7-1.7h0q0-.1,0-.1Z"/>
    <path class="cls-2" d="M29.1,9.9c-.1-.2-.3-.3-.6-.6h0c-.1-.1-.2-.2-.3-.3-1.4-1.4-2.8-2.8-4.2-4.2-.4-.4-.9-.9-1.3-1.3h0c0-.1,1.9-.1,1.9-.1.2.2.6.6.8.9,1.1,1.1,2.2,2.2,3.3,3.3.6.4,1,1,1.5,1.5-.1.2-.3.3-.6.6-.1.1-.2.2-.4.4h0v-.2Z"/>
    <path class="cls-24" d="M20.3,3.3h0c.3.4.7.8,1,1.1.8.8,1.5,1.5,2.3,2.3.8.8,1.5,1.5,2.4,2.3l1.8,1.8h.1c-.2.3-.4.6-.7.8h-.1c-.7-.7-1.4-1.3-2.1-2.1-.3-.3-.6-.7-.9-.9-.9-.9-1.8-1.8-2.6-2.6-.8-.8-1.5-1.5-2.3-2.3-.1,0-.2-.2-.3-.3h0c.4-.1,1-.1,1.4-.1h0Z"/>
    <path class="cls-50" d="M20.1,19.3h0c-1.1-1.1-2.1-2.2-3.2-3.2-.8-.8-1.4-1.5-2.2-2.2-.9-.8-1.7-1.7-2.4-2.4l-2.3-2.3c-.8-.8-1.5-1.5-2.4-2.3-.6-.6-1.1-1-1.5-1.5h-.1v-.8h.1l3.6,3.6c.8.8,1.5,1.7,2.4,2.4l2.3,2.3c.8.8,1.5,1.5,2.4,2.3.8.8,1.5,1.5,2.3,2.3l1.3,1.3s.1,0,0,.2c-.1.1-.2.3-.4.4v-.2Z"/>
    <path class="cls-49" d="M18.9,3.3c.1.1.2.2.4.3,1.4,1.4,3,3,4.4,4.4.9.8,1.7,1.7,2.4,2.4.3.3.8.7,1.1,1.1h0c-.2.3-.3.6-.6.8h-.1c-1-.9-1.9-1.8-2.8-2.8-.8-.8-1.7-1.7-2.4-2.4s-1.5-1.5-2.3-2.3c-.4-.4-.9-.9-1.3-1.3,0,0-.1-.1-.1-.2,0,0,1.2,0,1.2,0Z"/>
    <path class="cls-11" d="M5.8,6h.1c.9.9,1.8,1.8,2.8,2.6l1,1c.9.8,1.7,1.7,2.4,2.4l2.3,2.3c.8.8,1.5,1.5,2.3,2.3l2.3,2.3.7.7c-.1.1-.2.3-.3.4,0,0,0-.1-.1-.2-.3-.2-.6-.6-.9-.9l-1.3-1.3c-.9-.8-1.7-1.7-2.5-2.5-.8-.8-1.5-1.5-2.3-2.3-.8-.8-1.5-1.5-2.4-2.3-.8-.8-1.5-1.5-2.3-2.3-.6-.6-1-1-1.5-1.5h-.1v-.8h0Z"/>
    <path class="cls-6" d="M17.8,3.3s.1.2.2.2l3.3,3.3c.8.8,1.5,1.5,2.3,2.3s1.5,1.5,2.3,2.3c.2.2.4.4.7.7h0c-.1.3-.3.6-.6.7h-.1c-1.5-1.4-3-3-4.5-4.4-.8-.8-1.5-1.5-2.4-2.3-.8-.8-1.5-1.5-2.3-2.3,0,0-.2,0-.2-.2h1.1l.2-.2Z"/>
    <path class="cls-9" d="M20.4,18.8h0c-.3-.4-.8-.9-1.1-1.2-.8-.8-1.5-1.5-2.4-2.3-.8-.8-1.5-1.5-2.3-2.3l-2.3-2.3-2.3-2.3c-.8-.8-1.5-1.5-2.3-2.3-.6-.6-1.1-1.1-1.7-1.5h-.1v-.6h.1l2.9,2.9.8.8c.9.8,1.7,1.7,2.4,2.4.8.7,1.4,1.4,2.2,2.1.9.8,1.7,1.7,2.5,2.4.8.8,1.5,1.5,2.3,2.3l1.7,1.7h.1c0,.1,0,.2-.1.3,0,0,0,.1-.1.1h-.2Z"/>
    <path class="cls-52" d="M5.8,52.7h.1c1,.9,1.9,1.9,2.9,2.8.3.3.6.6.9.9.2.2.6.6.8.8-.1.1-.2.2-.3.4-.2.2-.4.3-.6.6h-.1c-.2-.2-.4-.4-.8-.8-.9-.9-1.8-1.8-2.6-2.6h-.1v-1.9h-.1Z"/>
    <path class="cls-18" d="M20.4,18.8h.1c0,.1.1.2.2.3,1,.9,1.9,1.9,2.9,2.9l2.2,2.2c.9.8,1.7,1.7,2.4,2.4.8.7,1.4,1.4,2.2,2.2.9.8,1.7,1.7,2.5,2.4.6.6,1,1,1.5,1.5,0,0,.1,0,.2.1-.2.3-.6.6-.8.9,0,0-.1.1-.2.2,0,0-.2.2-.3.2h-.1c-.8-.8-1.5-1.5-2.3-2.3-.9-.8-1.7-1.7-2.4-2.4l-2.1-2.1-2.6-2.6-2.3-2.3c-.8-.7-1.5-1.4-2.2-2.2,0,0-.1,0-.1-.2h0c.1-.1.2-.2.3-.4l.4-.4c.1-.1.2-.3.3-.4h.1Z"/>
    <path class="cls-3" d="M19.2,20.2h0c0,.1,1,1.1,1,1.1,1.1,1.1,2.2,2.2,3.4,3.3l2.3,2.3,2.3,2.3,2.3,2.3c.8.8,1.5,1.5,2.4,2.3.1.1.2.3.4.3-.2.2-.6.4-.8.8-.1.2-.3.3-.4.4h0c-1-1-2.1-2.1-3.1-3.1l-2.8-2.8-2.3-2.3c-.8-.8-1.5-1.5-2.4-2.3-.8-.8-1.5-1.5-2.3-2.2-.4-.3-.8-.8-1.2-1.1,0,0-.1,0,0-.2.4-.4.8-.9,1.2-1.3h-.1Z"/>
    <path class="cls-76" d="M13.4,26.2c.3-.3.7-.8,1.1-1.1.2-.2.4-.4.6-.6h.1c1,1.1,2.1,2.1,3.2,3.1,1,1,2,2,3.1,3,.8.8,1.5,1.5,2.3,2.3.8.8,1.5,1.5,2.4,2.3.8.8,1.5,1.5,2.3,2.3.2.2.6.4.8.8h0c-.1.3-.3.4-.6.7h-.1c-.3.3-.6.7-.9,1,0,0-.1,0-.1.1h0c-.8-.8-1.5-1.4-2.2-2.2-1.2-1.2-2.4-2.4-3.6-3.6s-1.5-1.5-2.3-2.3c-.8-.8-1.5-1.5-2.4-2.3-.8-.8-1.5-1.5-2.3-2.3-.3-.3-.7-.7-1-1,0,0-.1,0,0-.1h-.3Z"/>
    <path class="cls-22" d="M13.4,26.2c.3.3.7.7,1.1,1.1,0,0,.1.1.2.2.7.7,1.2,1.3,1.9,1.9.9.8,1.7,1.7,2.4,2.4.7.6,1.2,1.2,1.9,1.9,1,.9,1.9,1.9,2.8,2.8s1.5,1.5,2.3,2.3c.4.4.9.9,1.4,1.3h.1c-.1.2-.3.3-.6.6s-.4.4-.8.7h-.1s-.1-.1-.2-.2c-.1-.2-.3-.3-.4-.4-1.3-1.3-2.6-2.6-4-4-.8-.8-1.5-1.5-2.3-2.3-.8-.8-1.5-1.5-2.4-2.3-.8-.8-1.5-1.5-2.3-2.3-.8-.7-1.4-1.4-2.1-2.1,0,0-.1-.1-.1-.2.4-.4.8-.9,1.2-1.2h0Z"/>
    <path class="cls-5" d="M29.2,38.5h0c-.4-.4-.9-.9-1.3-1.3-1.3-1.3-2.6-2.6-4-3.9l-2.3-2.3-2.3-2.3c-.8-.8-1.5-1.5-2.4-2.3-.6-.6-1.1-1.1-1.8-1.7h-.1c.6-.7,1-1.2,1.5-1.8.1,0,.2.1.3.2,1.4,1.4,3,2.9,4.4,4.4.8.8,1.5,1.7,2.4,2.4.7.7,1.4,1.4,2.1,2.1.9.9,1.8,1.8,2.6,2.5.8.8,1.5,1.5,2.4,2.4h0c-.1.1-.3.2-.4.4l-.7.7-.6.6h0v-.2Z"/>
    <path class="cls-23" d="M30.9,36.9h-.1c-1.5-1.4-3-3-4.4-4.4s-1.5-1.7-2.4-2.3c-.7-.6-1.2-1.2-1.9-1.9-1-.9-1.9-1.9-2.8-2.8l-2.3-2.3s-.2-.1-.3-.2c.2-.2.4-.4.7-.7.2-.2.4-.6.7-.8h0c.3.4.6.7.9,1l2.3,2.3,2.3,2.3,2.3,2.3,2.3,2.3c.8.8,1.5,1.5,2.3,2.3.6.6,1,1,1.5,1.5-.2.3-.6.6-.9.9h-.1c-.1.2-.3.3-.4.6h0l.3-.2Z"/>
    <path class="cls-4" d="M10,29.7s.1-.1.2-.2c.3-.4.7-.8,1.1-1.1,0,0,.1.1.2.2,1,1,1.9,1.9,2.9,2.9.8.8,1.5,1.5,2.3,2.3s1.5,1.7,2.4,2.4c.8.8,1.5,1.5,2.3,2.2.8.8,1.5,1.7,2.4,2.4.6.4,1,1,1.5,1.5h.1c-.2.3-.3.4-.6.7s-.4.4-.8.7h-.1c-.1,0-.2-.2-.3-.3-.6-.6-1.2-1.2-1.8-1.9l-2.5-2.5c-.8-.8-1.5-1.5-2.3-2.3-.8-.8-1.5-1.5-2.4-2.3-.8-.8-1.5-1.5-2.3-2.3-.7-.7-1.4-1.4-2.1-2.1,0,0-.1,0,0-.2h-.3Z"/>
    <path class="cls-33" d="M10,29.7h0c.7.8,1.2,1.4,1.9,2,.8.8,1.5,1.5,2.3,2.3s1.5,1.5,2.3,2.3c.8.8,1.5,1.5,2.4,2.3.8.8,1.5,1.5,2.3,2.3.8.8,1.5,1.5,2.3,2.3.1,0,.2.2.3.3-.1.2-.4.3-.6.6-.2.2-.4.4-.6.6h0c-1-1-2.1-2-3.1-3.1-1-.9-1.9-1.9-2.8-2.8-.8-.8-1.5-1.5-2.3-2.3-.8-.8-1.5-1.5-2.3-2.3-.8-.8-1.5-1.5-2.3-2.3-.3-.3-.6-.6-.9-.9h0c.3-.6.8-.9,1.2-1.3h-.3Z"/>
    <path class="cls-40" d="M25.3,42.4c-.4-.4-.9-.9-1.3-1.3-.9-.8-1.7-1.7-2.4-2.4s-1.5-1.5-2.3-2.3c-.8-.8-1.5-1.5-2.4-2.3-.8-.8-1.5-1.5-2.3-2.3-.8-.8-1.5-1.5-2.3-2.3-.2-.2-.6-.6-.8-.8h0c.3-.4.7-.8,1-1.1,0,0,0,.1.1.2.7.7,1.3,1.3,2,2,.8.8,1.5,1.5,2.3,2.3.8.8,1.5,1.5,2.4,2.3.8.8,1.5,1.5,2.3,2.3.8.8,1.5,1.5,2.3,2.3.8.8,1.5,1.5,2.3,2.3,0,0,.1.2.3.2-.1.1-.3.2-.4.4-.2.2-.4.3-.6.6h-.2Z"/>
    <path class="cls-74" d="M19.8,47.9h0l-1.1-1.1c-1.3-1.3-2.6-2.6-4.1-4-.8-.8-1.5-1.5-2.3-2.3-.8-.8-1.5-1.5-2.4-2.3-.8-.8-1.5-1.5-2.3-2.3-.6-.6-1-1.1-1.5-1.5h0c.3-.4.7-.8,1-1.2h.1c.9.9,1.8,1.8,2.6,2.6.8.8,1.5,1.7,2.4,2.4.8.8,1.5,1.5,2.3,2.3.8.8,1.5,1.5,2.3,2.3.8.8,1.5,1.5,2.3,2.3.6.6,1.1,1.1,1.8,1.7h0l-.3.3c-.2.2-.6.4-.8.8h0Z"/>
    <path class="cls-38" d="M20.7,46.9h-.1l-2.5-2.5c-1.2-1.2-2.4-2.4-3.6-3.6-.8-.8-1.5-1.5-2.3-2.3-.8-.8-1.5-1.5-2.4-2.3-.8-.8-1.5-1.5-2.3-2.3-.2-.2-.4-.4-.7-.7.3-.3.7-.7,1-1,0,0,.1,0,.2.1.3.3.7.8,1.1,1.1,1,.9,1.9,1.9,2.9,2.9.8.8,1.7,1.7,2.4,2.4s1.5,1.5,2.2,2.2c.9.8,1.7,1.7,2.4,2.4.8.8,1.5,1.4,2.2,2.2l.6.6v.2c-.4.2-.7.6-1,.9v-.2Z"/>
    <path class="cls-65" d="M21.7,45.9c-.2,0-.3-.2-.4-.3l-3.9-3.9c-1-1-2-2-3-3-.8-.8-1.5-1.5-2.3-2.3-.8-.8-1.5-1.5-2.4-2.3-.7-.6-1.2-1.2-1.9-1.9h-.1c.3-.4.7-.8,1-1.2.2.3.6.6.9.9h0c1.4,1.4,3,3,4.5,4.4.8.8,1.5,1.7,2.4,2.4.7.7,1.4,1.4,2.1,2.1l2.5,2.5c.6.6,1,1,1.5,1.4,0,0-.2.2-.2.3l-.8.8h0Z"/>
    <path class="cls-36" d="M24.9,14.2h0q0,.1-.1.1h.1Z"/>
  </g>
  <g>
    <path class="cls-8" d="M77.3,57.5V13.3h9.6v19.2c.4-.4.7-.6,1-.9,5.3-5.8,10.7-11.6,16-17.4.6-.6,1.2-1,2.1-.9h10.5c-6.1,6.4-11.9,12.6-17.9,18.8,6.2,8.5,12.4,16.9,18.7,25.5h-11.2c-.3,0-.8-.4-1-.8-4.1-5.6-8.1-11.2-12.2-16.8-.3-.3-.5-.7-.9-1.1-1.6,1.7-3.2,3.3-4.7,5-.3.3-.3.9-.3,1.3v12.5h-9.7v-.3Z"/>
    <path class="cls-8" d="M130.2,58.4c-10.5,0-18.2-7.8-18.1-18.2,0-8.6,7.1-16.2,15.7-17.1,7.1-.7,13.1,1.3,17.4,7.1,7.8,10.5,1.4,25.9-11.6,27.9-1.1.2-2.3.3-3.4.3ZM130.3,50c5.1,0,8.7-3.9,8.7-9.3s-3.9-9.4-8.9-9.4-8.7,3.9-8.7,9.4,3.8,9.4,8.9,9.4h0Z"/>
    <path class="cls-8" d="M228.5,57.6h-9.5v-20c-.3-3.8-2.4-5.9-5.9-5.8-3.3,0-5.7,2.4-5.7,6,0,6.1,0,12.2,0,18.4v1.5h-9.5V23.7h9.5v4.5c.8-.8,1.3-1.4,1.8-1.9,5-4.9,13.3-4.4,17.2,1,1.7,2.4,2.3,5,2.3,7.8v21.9c0,7.3,0,.3,0,.6h-.2Z"/>
    <path class="cls-8" d="M151.1,31.8h-3.9v-8.2h3.8v-8.6h9.6v8.5h7.8v8.2h-7.8v14.3c0,2.8,1.2,3.9,4.1,3.5,1.2-.2,2.4-.6,3.7-.9v7.1c0,.3-.4.6-.8.8-3.7,1.8-7.7,2.1-11.6.8-2.5-.9-3.9-2.8-4.5-5.2-.3-1.3-.5-2.8-.5-4.1v-16.2h.2Z"/>
    <path class="cls-8" d="M171.4,11.3h9.4v46.2h-9.4V11.3Z"/>
    <path class="cls-8" d="M184.6,57.5V23.7h9.5v33.8h-9.5Z"/>
    <path class="cls-8" d="M194.3,11.3v8.4h-9.9v-8.4h9.9Z"/>
  </g>
</svg>