<?xml version="1.0" encoding="UTF-8"?>
<svg id="Capa_1" data-name="Capa 1" xmlns="http://www.w3.org/2000/svg" version="1.1" viewBox="0 0 193.1 65.1">
  <defs>
    <style>
      .cls-1 {
        fill: #01c5fc;
      }

      .cls-1, .cls-2, .cls-3, .cls-4, .cls-5, .cls-6, .cls-7 {
        stroke-width: 0px;
      }

      .cls-2 {
        fill: #001d23;
      }

      .cls-3 {
        fill: #000;
      }

      .cls-4 {
        fill: #01c7fd;
      }

      .cls-5 {
        fill: #0c7396;
      }

      .cls-6 {
        fill: #04c5fa;
      }

      .cls-7 {
        fill: #001d25;
      }
    </style>
  </defs>
  <path class="cls-3" d="M72.1,4.1v56.9h-1.5V4.1h1.5Z"/>
  <g>
    <path class="cls-6" d="M34.1,61H6.2q-1.3,0-1.3-1.4V5.3c0-.8.4-1.2,1.2-1.2h56.7c.3,0,.6.2.6.6v54.8c0,1-.5,1.5-1.5,1.5h-27.8Z"/>
    <path class="cls-2" d="M34.1,58.5H8.4c-.8,0-1-.2-1-1.1V7.7c0-.9.2-1.1,1.1-1.1h51.1c1.6,0,1.2,0,1.2,1.2v49.2q0,1.5-1.5,1.5h-25.2Z"/>
    <path class="cls-4" d="M19,30.5v-12.4c0-.5,0-1,.7-1,3-.1,6-.4,9,.1,3.2.6,6,2.8,6.4,6.5.3,2.3,0,4.5-1.1,6.5-1.5,2.4-3.8,3.4-6.5,3.8-1,.2-1.9.2-2.9.2s-1.2,0-1.2,1.2v7.5c0,.6-.2.9-.8.8h-2.6c-.7,0-1-.2-1-1v-12.4h0v.2Z"/>
    <path class="cls-1" d="M40.4,34.5c-3.2-1.9-3.5-5.6-1.9-8,1.2-1.8,3-2.6,5.1-2.7,1.5-.1,3,0,4.4.4.7.2,1,.5,1,1.2v2.2c0,.9,0,1-1,.6-1.3-.6-2.7-.8-4.2-.7-.8,0-1.5.3-1.8,1.1-.3.7,0,1.3.5,1.8,1,.9,2.2,1.3,3.3,2,1.6.9,3.1,1.9,3.8,3.7,1.2,3.1-.5,6.6-3.6,7.6-2.6.8-5.1.6-7.6-.3-.5-.2-.7-.5-.7-1v-2.9c0-.5.2-.7.7-.4,1.5.8,3.1,1.3,4.8,1.2.4,0,.8,0,1.3-.2,1.3-.5,1.6-1.8.6-2.8s-.6-.5-.9-.8c-1.1-.8-2.5-1.3-3.6-2.1h-.2Z"/>
    <path class="cls-5" d="M40.4,34.5c1.2.7,2.6,1.1,3.6,2.1-1.2-.7-2.6-1.1-3.6-2.1Z"/>
    <path class="cls-7" d="M23.4,25.6v-4c0-.4,0-.7.5-.7,1.5,0,2.9-.2,4.3.4,1.5.6,2.3,1.7,2.5,3.2,0,.9.1,1.7-.1,2.6-.5,1.9-2.1,3-4.3,3.2-1.9.1-2.9-.8-2.9-2.7v-2h0Z"/>
  </g>
  <g>
    <path class="cls-3" d="M90.8,44.2v-6.7c0-1.5.6-1.5,1.8-1.5s1.4.4,1.4,1.5v3.3c0,1.1,0,1.1.8.5,2.7-2.2,6.8-.5,6.7,3.8v6.3c0,1.4-.8,1.2-1.7,1.2s-1.6,0-1.5-1.2v-5.8c0-2-.4-2-1.7-2.2-1.2-.2-1.9.5-2.4,1.6-.2.5-.3,1.1-.3,1.7v4c0,1.3-.6,2.3-2.5,1.9-.7-.2-.6-.7-.6-1.1v-7.2h0Z"/>
    <path class="cls-3" d="M157.3,41.1c1.2.8,1.7,2,1.7,3.5v6.8c0,1.2-.6,1.2-1.4,1.2s-1.7.2-1.7-1.2v-5.9c0-1.1-.4-2-1.6-2.1-1.1,0-1.9.4-2.4,1.6-.7,1.9-.3,3.9-.4,5.8q0,1.8-1.9,1.8c-1,0-1.2-.4-1.2-1.3v-13.9c0-1.5.7-1.4,1.7-1.4s1.4.4,1.4,1.5v4.2c.6-.3,1.1-.5,1.6-.8,1.5-.6,2.9-.7,4.3.3h-.1Z"/>
    <path class="cls-3" d="M141.8,53c-.7,0-1.5-.2-2.2-.5-1.9-.9-2-2-.4-3.2.4-.3.7-.2,1.1,0,.6.4,1.2.8,2,.7.4,0,.8-.2.9-.6.2-.5-.1-.8-.5-1-.8-.5-1.6-.9-2.4-1.4-1.8-1-2.5-2.9-1.9-4.4.8-1.7,3-2.7,4.9-2.1.5.2.9.5,1.4.8s1.2.7,1.1,1.4-.9,1.1-1.4,1.6c-.3.3-.6,0-.8-.2-.4-.3-.8-.6-1.3-.6s-.7,0-.9.4,0,.7.4.8c.7.4,1.4.8,2.1,1.2,2,1.2,2.7,2.7,2.2,4.5-.5,1.7-2.1,2.7-4.3,2.7h0Z"/>
    <path class="cls-3" d="M118.5,47.9v-2.7c0-.8.2-1.4-1-1.6-.9,0-.4-1.1-.4-1.7s0-1.1.6-1.1.8-.5.8-1.1v-2.3c0-1.1.3-1.5,1.5-1.5s1.9.4,1.7,1.7v1.9c0,.7,0,1.3,1,1.3s.8.7.7,1.3c0,.6.4,1.5-.7,1.6-1.1,0-1.1.6-1.1,1.4v6.3c0,.9-.3,1.3-1.2,1.2-.9,0-2,.4-2-1.2v-3.5h0Z"/>
    <path class="cls-3" d="M162.7,42.4c-.4.8-.8,1.5-1.1,2.2-.7,1.9-.2,3.7.5,5.5-1.8-1.9-1.5-6,.5-7.8h.1Z"/>
    <path class="cls-3" d="M157.3,41.1c-1.4-.7-2.8-.6-4.3-.3,1.3-.9,3.2-.8,4.3.3Z"/>
    <path class="cls-3" d="M107.1,9.8c0-.5,0-1-.3-1.4-.7-.5-1.5-.2-2.2-.3-.9-.1-1.2.2-1.1,1.1v4.8c-1.1-.9-2-1.4-3.1-1.5-3.2-.1-5.4,1.7-6,5.2-.4,2.5.3,4.7,2.4,6.3,1.9,1.5,4,1.6,6.1.2.2-.1.4-.4.6-.1,1,1.3,2.3.4,3.4.6.4-.4.3-.9.3-1.4v-13.5h-.1ZM100.5,22.2c-1.8,0-3.1-1.4-3.1-3.3s1.2-3.3,3-3.4c1.8,0,3.1,1.3,3.1,3.3s-1.2,3.5-3.1,3.4h0Z"/>
    <path class="cls-3" d="M92.5,23.6c-1.7-4.3-3.3-8.6-4.9-12.9q-.9-2.3-3.2-2.2c-.6,0-.9.2-1.1.8-1.7,4.6-3.5,9.2-5.3,13.9q-.6,1.6,1.2,1.6c.7,0,1.6.3,2-.8q.9-2.4,3.5-2.4h2.2c1.1-.1,1.8.2,2,1.4.2,1.7,1.3,2,2.8,2s1.2-.3.8-1.3h0ZM86.4,18.6h-1.3c-1.3,0-1.7-.6-1.3-1.8.3-.8.6-1.6.9-2.4,0-.2,0-.4.4-.4s.4.2.4.4c.5,1.2.9,2.4,1.4,3.6.2.5,0,.7-.5.6h0Z"/>
    <path class="cls-3" d="M133.4,13.7c-1.9-1.6-4.2-1.5-6.9.3v-4.4c0-.9,0-1.6-1.2-1.4-.9.1-2-.4-2,1.4,0,4.7,0,9.4,0,14.1s.4,1.3,1.3,1.2c.8,0,1.7.2,2.1-.8.8.5,1.5,1.1,2.5,1.2,2.7.3,5-1.2,6.1-3.9,1.1-2.6.2-5.9-2-7.6h0ZM129.5,22.2c-1.8,0-3.1-1.4-3.1-3.4s1.3-3.3,3.1-3.3,3,1.4,3,3.4-1.3,3.3-3.1,3.4h.1Z"/>
    <path class="cls-3" d="M187.5,43.7c-1.5-3.2-4.6-4.2-7.7-2.5-.4.2-.6.5-1.1,0-.6-.7-1.7-.4-2.5-.2-.8,0-.4,1-.4,1.5v6.6h0v7.1c0,1.4,1.1.9,1.8.9s1.4,0,1.3-1v-3.3c0-.8.2-.9.9-.5,1.4.9,3,1.1,4.6.4,3.4-1.5,4.8-5.4,3.1-8.9h0ZM181.8,50c-1.9,0-3.1-1.5-3-3.5,0-1.9,1.4-3.3,3.2-3.2,1.8,0,3.1,1.6,3,3.6,0,1.8-1.5,3.2-3.1,3.1h0Z"/>
    <path class="cls-3" d="M145.5,21.8c-1.6.9-3.6.4-4.5-.7-.2-.3-.5-.5-.3-.9s.6-.2.8-.2h6.9c1.3,0,1.7-.4,1.4-1.5v-1.2h0c0-.1-.2-.2-.2-.3-1.2-3.2-3.4-4.6-6.8-4.3-2.5.2-4.6,2.2-5.3,5.1-.6,2.7.7,5.4,3.2,6.9,2.2,1.3,5.6.9,7.5-.9q1.1-1-.2-1.8c-.8-.4-1.5-.5-2.5,0h0v-.2ZM140.9,16.8c1-1.6,4.5-1.6,5.5,0,.3.5,0,.6-.4.6h-4.8c-.8,0-.6-.2-.3-.6h0Z"/>
    <path class="cls-3" d="M115.1,12.6c-3.5,0-6.3,2.8-6.4,6.2,0,3.5,2.8,6.4,6.2,6.4,3.5.3,6.4-3,6.4-6.3s-2.8-6.3-6.2-6.3ZM115.1,22.2c-1.8,0-3.1-1.2-3.2-3,0-2.1,1.1-3.6,3-3.6s3,1.2,3.1,3.3c0,2-1.1,3.3-2.9,3.4h0Z"/>
    <path class="cls-3" d="M84.3,36.5c-1.5-.2-2.9,0-4.4-.2-1,0-1.4.3-1.3,1.3v6.7h0v6.2q0,2.2,2.3,2.1c.7,0,1-.3.9-1v-3.5c0-1.2.7-2.3,2.2-2.5,2.4-.2,4.1-2,4.2-4.4,0-2.7-1.3-4.4-3.9-4.8h0ZM82.8,42.8q-1.1,0-1.1-1.8c.2-.6-.4-1.8,1.1-1.8s2.3.7,2.3,1.8-.7,1.8-2.3,1.7h0Z"/>
    <path class="cls-3" d="M109.8,40.4c-2.6-.3-6.3,2.6-6.2,6.2,0,3.4,2.6,6.3,5.8,6.4,3.7,0,6.6-2.6,6.7-6,0-3.8-2.6-6.5-6.2-6.6h-.1ZM109.8,50c-1.9,0-3.1-1.3-3.1-3.2s1.2-3.4,3.1-3.5c1.9,0,3,1.3,3,3.3s-1.2,3.3-3,3.4h0Z"/>
    <path class="cls-3" d="M136.5,46.7c-.2-3.9-2.9-6.5-6.8-6.3-3.2,0-5.8,3.3-5.7,6.8,0,3.4,3.2,6,6.8,5.8,3.1-.2,5.9-3.1,5.7-6.3h0ZM130.3,50c-1.8,0-3.1-1.3-3.1-3.3s1.2-3.4,3.1-3.4,3,1.4,3.1,3.2c0,2.1-1.2,3.5-3.1,3.5h0Z"/>
    <path class="cls-3" d="M172.4,42.9c-2.1-2.9-6.4-3.8-9.6-.5-1.9,1.9-1.9,6-.5,7.8,2.2,3.1,6,3.7,8.9,1.5,2.8-2,3.3-6,1.2-8.8h0ZM167.4,50c-1.8,0-3.1-1.3-3.1-3.3s1.3-3.5,3.1-3.4c1.7,0,3,1.4,3,3.2s-1.2,3.4-3.1,3.5h.1Z"/>
  </g>
</svg>