<?xml version="1.0" encoding="UTF-8"?>
<svg id="Capa_1" xmlns="http://www.w3.org/2000/svg" version="1.1" viewBox="0 0 1280 1280">
  <!-- Generator: Adobe Illustrator 29.0.0, SVG Export Plug-In . SVG Version: 2.1.0 Build 186)  -->
  <defs>
    <style>
      .st0 {
        fill: #fff;
      }
    </style>
  </defs>
  <path class="st0" d="M600.97,26.67c497.69-34.65,826.97,521.27,557.39,945.59-237.98,374.57-791.24,376.84-1032.58,4.58C-130.84,581.01,135.09,59.11,600.97,26.67ZM676.57,262.08c-94.41,19.3-88.46,170.46,20.99,174.02,128.2,4.17,112.19-201.24-20.99-174.02ZM739.54,511.52c-33.56-3.42-236.96,5.92-243.59,34.38,6.64,38.88,82.64.11,89.84,38.98,2.25,12.16-56.85,181.6-64.87,214.27-20.11,81.99-66.22,223.62,50.64,249.61,79.87,17.76,216.79-78.74,213.57-164.2-55.64-4.81-61.94,75.14-127.64,48.22l-12.92-16.58,94.96-404.67Z"/>
</svg>