<?xml version="1.0" encoding="UTF-8"?>
<svg id="Capa_1" data-name="Capa 1" xmlns="http://www.w3.org/2000/svg" viewBox="0 0 61.17 61.07">
  <defs>
    <style>
      .cls-1 {
        fill: #fff;
      }
    </style>
  </defs>
  <path class="cls-1" d="M28.79.05c21.7-1.25,37.94,20.17,30.57,40.76-8.14,22.75-38.11,27.48-53,8.33C-8.66,29.81,4.57,1.45,28.79.05ZM13.82,19.97l-.2.2v20.77c.12.19.27.19.47.21,2.35.28,6.92.13,9.38,0s4.48-.44,6.1-2.45c1.58-1.96,1.9-5.68.14-7.61-.32-.35-1.81-1.18-1.84-1.29-.05-.22,1.37-.98,1.49-1.36,1.52-2.18,1.02-5.83-1.23-7.32-.7-.46-2.65-1.16-3.45-1.16h-10.86ZM44.3,20.92h-8.55v2.04h8.55v-2.04ZM47.56,33.95v-1.97c0-6.17-7.32-9-12.07-5.69-3.13,2.18-3.69,7.77-2.07,11.01,2.61,5.24,12.75,4.94,13.87-1.31h-3.87c-1.85,3.09-6.95,1.98-6.84-1.81l.19-.23h10.79Z"/>
  <path class="cls-1" d="M18.5,37.48v-5.7h4.82c.2,0,1.16.17,1.4.23,2.29.59,2.32,4.2.25,5.09-.31.13-1.24.38-1.52.38h-4.95Z"/>
  <path class="cls-1" d="M18.5,23.63h4.55c.31,0,1.71.29,2.01.44,1.45.73,1.33,3.52-.52,4.03-1.21.33-4.31.43-5.56.29-.2-.02-.35-.02-.47-.21v-4.55Z"/>
  <path class="cls-1" d="M43.48,31.37h-6.79c.21-4.24,6.53-4.22,6.79,0Z"/>
</svg>