<?xml version="1.0" encoding="UTF-8"?>
<svg id="Capa_1" xmlns="http://www.w3.org/2000/svg" version="1.1" viewBox="0 0 1280 1280">
  <!-- Generator: Adobe Illustrator 29.0.0, SVG Export Plug-In . SVG Version: 2.1.0 Build 186)  -->
  <defs>
    <style>
      .st0 {
        fill: #fff;
      }
    </style>
  </defs>
  <path class="st0" d="M1186.98,260.69c12.14,20.4,23.68,39.85,24.89,64.48v629.68c-4.39,55.77-47.53,98.32-103.08,103.08H171.24c-55.77-4.39-98.32-47.53-103.08-103.08l-.03-626.95c.33-25.64,12.29-46.1,24.92-67.2l6.88,2.67,465.83,466.02c46.44,38.1,102.13,38.04,148.5,0l465.83-466.02,6.88-2.67Z"/>
  <path class="st0" d="M1145.79,230.47l-4.1,8.23-460.39,460.47c-25.2,19.19-57.32,18.93-82.59,0L134.2,231.84l39.77-9.77h932.09s39.73,8.4,39.73,8.4Z"/>
</svg>