<?xml version="1.0" encoding="UTF-8"?>
<svg id="Capa_1" xmlns="http://www.w3.org/2000/svg" version="1.1" viewBox="0 0 1280 1280">
  <!-- Generator: Adobe Illustrator 29.0.0, SVG Export Plug-In . SVG Version: 2.1.0 Build 186)  -->
  <defs>
    <style>
      .st0 {
        fill: #fff;
      }
    </style>
  </defs>
  <path class="st0" d="M720.88,1226.32v-426.5h106.63c16.21,0,39.35-16.14,46.93-30.62,8.3-15.87,15.53-66.32,11.99-83.69-2.68-13.2-19.35-32.21-31.94-37.3-3.84-1.55-21.36-6.26-24.21-6.26h-109.4v-112.16c0-11.73,11.38-46.13,17.92-56.86,38.45-63.08,96.05-13.83,139.91-56.72,38.17-37.32,18.33-110.53-35.24-119.79-58.39-10.09-145.87-2.54-197.14,28.65-108.05,65.73-94.48,207.2-94.38,316.89h-95.55c-100.55,0-100.59,157.86,0,157.86h95.55v426.5C173.76,1167.31-57.6,765.03,98.14,408.33,327.51-117.06,1103.43-41.06,1218.54,519.57c69.37,337.87-157.75,660.48-497.66,706.75Z"/>
</svg>