<?xml version="1.0" encoding="UTF-8"?>
<svg id="Capa_1" xmlns="http://www.w3.org/2000/svg" version="1.1" viewBox="0 0 1280 1280">
  <!-- Generator: Adobe Illustrator 29.0.0, SVG Export Plug-In . SVG Version: 2.1.0 Build 186)  -->
  <defs>
    <style>
      .st0 {
        fill: #fff;
      }
    </style>
  </defs>
  <path class="st0" d="M629.5,365.4c-4,1.9-28.6,26-128.2,125.7l-123.2,123.4-1.6,5.9c-1.8,6.1-1.6,12.9.5,15s11.6,1.3,34.3,1.6l33.2.5.5,129.5c.6,144.4-.1,132.5,7.6,141,2.1,2.3,5.6,5.1,7.8,6.3,4,2.2,4.9,2.2,54.2,2.5l50,.3,5.5-2.9c3.9-2,6.2-4.1,8.4-7.7l3-4.8.5-52.1.5-52.1,2.7-5.1c3.3-6.3,9.1-11.6,15.4-14,4.5-1.7,8-1.9,39.4-1.9s34.9.2,39.4,1.9c6.3,2.4,12.1,7.7,15.4,14l2.7,5.1.5,52,.5,52,2.5,4.5c1.6,2.8,4.3,5.5,7.4,7.5l4.9,3h51.1c50.6,0,51.1,0,55.2-2.2,2.2-1.2,5.7-4,7.8-6.3,7.7-8.5,7,3.4,7.6-141l.5-129.5,33.2-.5c22.7-.3,33.6-.9,34.3-1.6,2.1-2.1,2.3-8.9.5-15l-1.6-5.9-123.2-123.4c-133.6-133.7-127.5-128.1-138.7-128.1s-7.1.8-10.5,2.4Z"/>
</svg>