<?xml version="1.0" encoding="UTF-8"?>
<svg id="Capa_1" xmlns="http://www.w3.org/2000/svg" version="1.1" viewBox="0 0 1280 1280">
  <!-- Generator: Adobe Illustrator 29.0.0, SVG Export Plug-In . SVG Version: 2.1.0 Build 186)  -->
  <defs>
    <style>
      .st0 {
        fill: #fff;
      }
    </style>
  </defs>
  <path class="st0" d="M603.95,32.38C128.72,58.54-134.22,606.01,145.15,995.11c260.23,362.44,810.89,330.52,1026.83-59.3C1404.94,515.27,1080.61,6.14,603.95,32.38ZM436.68,1004.81h-151.13v-484.45h151.13v484.45ZM337.76,444.34c-89.1-24.23-77.28-156.26,7.33-167.74,144.83-19.64,125.65,203.91-7.33,167.74ZM1003.94,1004.81h-146.99v-278.45c0-91.75-153.49-114.32-184.84-13-1.38,4.47-5.63,19.93-5.63,23.35v268.1h-146.99v-484.45h138.71v68.32c32.45-39.98,78.37-68.43,129.96-76.03,68.74-10.13,147.54,16.42,184.32,77.47,10.97,18.21,31.46,66.22,31.46,86.55v328.14Z"/>
</svg>