<?xml version="1.0" encoding="UTF-8"?>
<svg id="Capa_1" xmlns="http://www.w3.org/2000/svg" version="1.1" viewBox="0 0 1280 1280">
  <!-- Generator: Adobe Illustrator 29.0.0, SVG Export Plug-In . SVG Version: 2.1.0 Build 186)  -->
  <defs>
    <style>
      .st0 {
        fill: #fff;
      }
    </style>
  </defs>
  <path class="st0" d="M1231.71,522.38c-16.59-22.95-43.17-36.56-71.49-36.6h-71.05v-88.12c-.06-48.65-39.48-88.07-88.12-88.12h-381.87l-152.75-114.56c-15.27-11.4-33.82-17.59-52.88-17.63H119.8c-48.65.06-88.07,39.48-88.12,88.12v793.12c0,.28.04.55.04.83.01.62.05,1.23.09,1.85.06,1.05.16,2.09.29,3.12.08.56.16,1.12.26,1.67.19,1.13.43,2.23.71,3.33.12.45.22.91.35,1.36.38,1.32.82,2.6,1.31,3.86.09.23.16.47.26.7.63,1.54,1.35,3.04,2.15,4.49.09.16.19.31.28.46.7,1.25,1.47,2.45,2.29,3.61.1.15.18.31.29.45.2.27.43.5.63.77.67.89,1.37,1.76,2.11,2.59.38.43.75.85,1.14,1.26.78.82,1.6,1.6,2.44,2.35.35.31.69.65,1.05.95,1.22,1.04,2.5,2.01,3.83,2.91l.11.06c1.31.87,2.66,1.66,4.06,2.39.35.18.72.34,1.07.52,1.1.54,2.22,1.04,3.37,1.48.44.17.87.32,1.31.48,1.11.39,2.23.74,3.38,1.04.47.12.93.25,1.39.36,1.18.27,2.38.48,3.59.65.44.06.86.15,1.3.2,1.65.19,3.3.29,4.96.3h969.37c18.97,0,35.8-12.14,41.8-30.13l156.91-470.75c8.92-26.88,4.42-56.4-12.11-79.39ZM413.55,265.47l152.75,114.56c15.27,11.4,33.82,17.59,52.88,17.63h381.87v88.12H283.75c-37.94-.03-71.64,24.25-83.6,60.26l-80.34,241.03V265.47h293.75Z"/>
</svg>