<?xml version="1.0" encoding="UTF-8"?>
<svg id="Capa_1" xmlns="http://www.w3.org/2000/svg" version="1.1" viewBox="0 0 1280 1280">
  <!-- Generator: Adobe Illustrator 29.0.0, SVG Export Plug-In . SVG Version: 2.1.0 Build 186)  -->
  <defs>
    <style>
      .st0 {
        fill: #fff;
      }
    </style>
  </defs>
  <path class="st0" d="M369.9,1070.94c-24.76-6.25-18.8-52.81-19.21-74.03-19.75,4.22-23.62-19.68-31.99-26.49-12.73-10.35-43.73-17.98-58.34-29.93-25.4,24.82-47.17,59.79-82.72,28.19-17.71-15.74-74.15-81.65-87.83-102.33-10.03-15.16-11.14-28.93-7.72-47.69,3.94-21.63,23.96-30.4,31.91-48.69-6.72-18.57-14.93-36.37-21.55-55-3.78-10.64-9.64-45.65-17.83-47.45-9.42-2.06-22.88,1.4-33.13.04-23.01-3.05-37.58-25.97-39.56-51.79-2.6-33.86-2.6-99.85,0-133.71,4.02-52.5,39.94-53.53,76.58-53.15l35.18-98.73c1.29-10.69-23.71-28.64-28.94-42.26-7.31-19.03-5.83-39.98,5.05-56.45,14.69-22.23,67.37-83.02,86.54-100.86,12.41-11.55,19.56-13.59,35.85-11.92,23.88,2.45,29.69,26.47,48.15,38.64,15.98-7.7,31.16-17.57,47.21-25.11,7.72-3.62,34.47-11.24,38.18-14.83,7.45-7.22-6.79-54.52,19.06-78.64,3.6-3.36,14.14-10.19,18.39-11.2,19.42-4.59,107.46-3.53,129.26-.68,14.12,1.85,19.11,9.03,30.06,17.33,176.22-84.51,406.32-50.74,531.18,126.61,53.14,75.48,92.22,179.2,104.07,276.19,11.67,95.55-1.51,130.69,40.66,222.54,14.28,31.1,58.78,97.57,61.27,127.39,7.03,84.15-111.93,63.83-155.03,72.33l14.86,206.21c-.86,34-56.86,57.69-80.48,65.81-32.2,11.06-66.26,17-99.83,15.68v117.16c0,.51-3.93,5.23-5.13,5.89h-511.6c-1.2-.66-5.13-5.37-5.13-5.89v-203.18c-19.28-3.32-49.7,4.48-67.46,0ZM579.91,934.5c16.93.36,51.53-34.04,64.65-32.65,18.86,1.99,34.79,53.49,58.29,43.9l87.01-100.28c12.49-31.77-39.62-53.52-36.89-75.35.93-7.43,21.41-46.53,25.95-59.04,4.88-13.47,17.06-65.22,20.97-70.48,14.77-19.85,66.91,15.97,70.34-27.79,3.36-42.9-2.28-92.35-.66-135.94-5.97-30.1-61.08.15-71.81-23.11-4.69-22.2-10.54-43.84-18.1-64.93-4.26-11.89-26.87-57.08-26.91-63.88-.1-18.49,48.33-42.99,37.93-70.57l-84.62-100.13c-26.32-17.91-42.83,45.57-66.14,41.7-7.2-1.2-41.11-25.68-52.42-31.13-11.91-5.74-53.02-17.79-58.73-23.52-17.03-17.1,13.71-77.97-23.85-81.96-26.84-2.85-83.06-3.09-109.74-.04-33.94,3.88-10.51,59.46-21.3,78.99-4.05,7.32-53.95,23.39-66.28,29.55-10.15,5.07-43.39,28.4-49.78,28.33-21.01-.24-34.56-67.07-68.73-35.91-8.76,7.99-77.24,88.53-78.99,94.82-8.08,29.1,37.26,44.86,37.19,69.88-.02,7.9-19.79,45.81-24.25,57.93-8.46,22.98-14.05,47.12-20.65,70.86-12.52,24.68-66.87-10.77-72.21,28.58-3.36,24.71-2.36,101.01-.26,127.51,3.79,48.05,54.52,10.61,70.31,30.79,5.37,6.87,17.88,61.18,23.56,76.36s25.2,48.24,22.91,61.08c-3.98,22.34-52.01,41.34-33.81,70.26,18.81,15.11,68.11,90.35,85.03,96.69,26.63,9.98,41.77-40.59,57.55-43.26,8.12-1.37,37.92,20.98,48.6,26.35,5.18,2.6,10.43,5.9,16.17,6.37v-72.67c0-21.08-66.52-131.94-79.35-159.66-95.5-206.3,47.28-447.58,245.75-413.88,160.36,27.23,250.65,233.45,178.65,403.12-12.76,30.08-85.39,149.49-85.39,170.42v72.67ZM508.63,842.55h47.09c42.96-106.74,113.97-172.97,105.74-301.17-17.77-276.88-374.04-302.19-418.95-25.2-23.06,142.27,57.08,208.46,100.64,326.37h48.37v-207.63h-49.64c-8.29,0-27.77-18.52-33.16-26.62-44.94-67.57,26.35-153.54,86.17-103.37,8.14,6.83,24.63,31.66,24.63,42.49v54.87h61.1v-51.91c0-12.81,15.58-37.61,24.63-45.45,53.18-46.09,123.15,21.93,93.9,91.61-5.51,13.13-28.43,38.37-40.89,38.37h-49.64v207.63ZM900.66,623.06v-148.3h-2.55v148.3h2.55ZM391.53,602.29v-48.94c0-1.25-7.09-14.14-8.83-16.41-30.97-40.42-81.01,15.14-50.75,53.2,1.68,2.12,14.12,12.15,15.03,12.15h44.55ZM508.63,602.29h44.55c2.03,0,14.44-10.14,16.61-13.28,22.56-32.63-7.58-78.97-40.79-62.34-7.75,3.88-20.36,20.4-20.36,29.64v45.97ZM480.63,634.92h-57.28l-3.82,4.45v203.18h61.1v-207.63ZM551.91,875.17h-203.65v88.98h203.65v-2.97h-201.11v-83.05h201.11v-2.97ZM521.36,996.78h-142.56v41.53h142.56v-41.53ZM526.45,1070.94h-66.19v183.9h476.04v-115.68h-2.55v112.71h-470.94v-177.97h63.64v-2.97Z"/>
</svg>