<?xml version="1.0" encoding="UTF-8"?>
<svg id="Capa_1" xmlns="http://www.w3.org/2000/svg" version="1.1" viewBox="0 0 400 400">
  <!-- Generator: Adobe Illustrator 29.0.0, SVG Export Plug-In . SVG Version: 2.1.0 Build 186)  -->
  <defs>
    <style>
      .st0 {
        fill: #4a9c4d;
      }

      .st1 {
        fill: #fefffe;
      }
    </style>
  </defs>
  <path class="st1" d="M12.25,388.41l26.13-96.17C-32.83,164.27,58.84,8.19,205.86,11.65c169.53,3.98,245.14,214.08,118.77,326.75-59.3,52.87-144.41,60.15-214.49,24.71l-97.9,25.3ZM296.45,75.51c-44.47-35.91-109.3-42.5-160.96-18.49-87.78,40.8-116.67,149.59-63.22,230.11l-14.78,56.03c19.52-3.24,38.33-10.31,57.85-13.97,57.65,35.47,134.24,33.07,185.79-12.55,75.22-66.57,73.63-177.9-4.69-241.13Z"/>
  <path class="st0" d="M296.45,75.51c78.32,63.23,79.91,174.57,4.69,241.13-51.55,45.62-128.14,48.01-185.79,12.55-19.52,3.67-38.33,10.73-57.85,13.97l14.78-56.03c-53.45-80.51-24.56-189.31,63.22-230.11,51.66-24.01,116.48-17.42,160.96,18.49ZM131.23,111.92c-6.29,1.05-13.18,8.66-16.68,13.77-28.27,41.3,20.35,100.27,51.3,126.08,27.82,23.2,97.45,56.85,124.35,17.37,3.81-5.59,8.62-23.92,2.54-28.53-3.44-2.61-36.3-18.33-40.1-19.06-9.64-1.84-11.37,6.01-16.79,12.39-4.52,5.32-8.19,12.31-15.88,10.7-13.59-2.86-38.62-22.39-48.06-32.85-3.62-4.01-17.23-21.39-17.81-25.75-.79-5.87,7.54-11.4,10.79-16.1,7.98-11.54,3.73-14.36-.83-26-2.3-5.89-10.3-27.17-14.27-30.1-3.69-2.72-14.1-2.66-18.56-1.91Z"/>
  <path class="st1" d="M131.23,111.92c4.46-.74,14.87-.8,18.56,1.91,3.98,2.93,11.97,24.22,14.27,30.1,4.55,11.64,8.8,14.46.83,26-3.25,4.7-11.58,10.23-10.79,16.1.58,4.36,14.19,21.74,17.81,25.75,9.44,10.46,34.47,29.99,48.06,32.85,7.7,1.62,11.36-5.37,15.88-10.7,5.42-6.38,7.15-14.23,16.79-12.39,3.8.73,36.66,16.45,40.1,19.06,6.08,4.61,1.27,22.94-2.54,28.53-26.9,39.48-96.53,5.83-124.35-17.37-30.96-25.82-79.57-84.79-51.3-126.08,3.5-5.11,10.39-12.72,16.68-13.77Z"/>
</svg>