<?xml version="1.0" encoding="UTF-8"?>
<svg id="Capa_1" xmlns="http://www.w3.org/2000/svg" version="1.1" viewBox="0 0 1280 1280">
  <!-- Generator: Adobe Illustrator 29.0.0, SVG Export Plug-In . SVG Version: 2.1.0 Build 186)  -->
  <defs>
    <style>
      .st0 {
        fill: #fff;
      }
    </style>
  </defs>
  <path class="st0" d="M622.42,66.46l30.47-.65c440.08,12.09,709.62,495.86,475.83,876.59-227.47,370.45-773.89,360.02-988.12-17.89C-73.71,546.47,193.57,80.11,622.42,66.46ZM980.84,259.41h-60.96l-239.99,278.69-3.43-2.46-188.14-272.36h-217.72l282.58,419.02-282.58,331.86h64.83l247.72-288.32,200.3,296.06h226.43l-301.71-441.94,272.68-320.56Z"/>
  <polygon class="st0" points="918.92 971.59 816.35 971.59 617.76 687.21 671.24 621.31 918.92 971.59"/>
  <polygon class="st0" points="355.75 311.67 455.42 311.67 641.83 576.33 640.33 583.66 587.23 642.51 355.75 311.67"/>
</svg>